<?xml version="1.0" encoding="UTF-8" standalone="no"?>
<svg
   width="44mm"
   height="88mm"
   viewBox="0 0 44 88"
   version="1.1"
   id="svg1"
   sodipodi:docname="kerzen_.svg"
   inkscape:version="1.4 (e7c3feb1, 2024-10-09)"
   xmlns:inkscape="http://www.inkscape.org/namespaces/inkscape"
   xmlns:sodipodi="http://sodipodi.sourceforge.net/DTD/sodipodi-0.dtd"
   xmlns="http://www.w3.org/2000/svg"
   xmlns:svg="http://www.w3.org/2000/svg">
  <path
     id="path19"
     style="fill:#000000;stroke:none;stroke-width:0.0201133"
     inkscape:transform-center-x="1.6039786e-05"
     inkscape:transform-center-y="-0.44768693"
     d="M 16.095658 12.061796 C 16.09142 12.062654 15.989179 12.182614 15.848128 12.375989 C 15.901839 12.448739 15.966967 12.54213 16.033647 12.649874 C 16.067542 12.704626 16.101852 12.763193 16.134932 12.824023 C 16.156932 12.86446 16.178391 12.905687 16.199011 12.948047 C 16.271234 13.096599 16.332503 13.255434 16.364893 13.411584 C 16.378793 13.478471 16.387181 13.545112 16.389181 13.610022 C 16.391091 13.674955 16.386528 13.738168 16.373678 13.799158 C 16.353728 13.891971 16.3281 13.978733 16.29823 14.058573 C 16.27834 14.11179 16.256808 14.162232 16.233118 14.208952 C 16.221278 14.232232 16.208561 14.254551 16.195911 14.276131 C 16.173871 14.313649 16.150547 14.348061 16.126147 14.380001 C 16.108367 14.403261 16.09022 14.4255 16.07137 14.44563 C 16.06393 14.45357 16.056133 14.461484 16.048633 14.468884 C 16.033433 14.483824 16.018471 14.497405 16.002641 14.510225 C 16.000441 14.511825 15.998956 14.51286 15.996956 14.51436 C 15.948588 14.55272 15.897628 14.581042 15.845028 14.598592 C 15.832668 14.602722 15.820331 14.606344 15.807821 14.609444 C 15.779391 14.616324 15.750194 14.619728 15.721004 14.619779 C 15.712004 14.619779 15.703132 14.619403 15.694132 14.618746 C 15.685232 14.617646 15.676478 14.616845 15.667778 14.615645 L 15.667261 14.615645 C 15.658471 14.614245 15.649606 14.612994 15.640906 14.610994 C 15.639106 14.610094 15.636705 14.609426 15.634705 14.608927 C 15.622195 14.605997 15.609858 14.602792 15.597498 14.598592 C 15.594798 14.598092 15.591929 14.596824 15.589229 14.596008 L 15.588713 14.596008 C 15.580153 14.593108 15.571891 14.58949 15.563391 14.58619 C 15.554921 14.58259 15.54647 14.578604 15.53807 14.574304 C 15.52973 14.570144 15.521565 14.565052 15.513265 14.560352 L 15.512748 14.560352 C 15.504498 14.555582 15.49656 14.550665 15.48846 14.545365 L 15.487944 14.545365 C 15.479774 14.540025 15.472172 14.534829 15.464172 14.528829 C 15.456092 14.522909 15.447784 14.516625 15.439884 14.510225 C 15.427914 14.500545 15.416384 14.49012 15.404744 14.47922 C 15.401154 14.47592 15.396776 14.471668 15.393376 14.468368 C 15.385766 14.460938 15.378555 14.45353 15.371155 14.44563 L 15.370638 14.445113 C 15.355778 14.429253 15.34142 14.412827 15.32723 14.394987 L 15.32723 14.39447 C 15.32364 14.38974 15.319361 14.384701 15.315861 14.380001 C 15.305521 14.366491 15.295272 14.352693 15.285372 14.338143 C 15.271902 14.318463 15.258738 14.297671 15.246098 14.276131 C 15.224758 14.239866 15.204983 14.200452 15.186153 14.159342 C 15.182563 14.151512 15.178601 14.144088 15.175301 14.136088 C 15.164341 14.111088 15.153778 14.085183 15.143778 14.058573 C 15.113968 13.978743 15.088838 13.891978 15.068848 13.799158 C 15.041978 13.877048 15.018151 13.955065 14.998051 14.033252 C 14.927691 14.306906 14.903296 14.579323 14.955676 14.828035 C 14.990596 14.990272 15.034766 15.14221 15.086934 15.281755 C 15.104314 15.328265 15.122611 15.373417 15.141711 15.417147 C 15.147811 15.431177 15.154542 15.443724 15.160832 15.457454 C 15.193762 15.529304 15.228486 15.59818 15.265735 15.661576 L 15.265735 15.662093 C 15.287865 15.699733 15.310955 15.735621 15.334465 15.770097 C 15.351815 15.795547 15.369641 15.819291 15.387691 15.842961 C 15.394191 15.851461 15.400252 15.861086 15.406812 15.869316 L 15.407328 15.869316 C 15.432118 15.900476 15.457333 15.929942 15.483293 15.957682 L 15.483809 15.958199 C 15.496839 15.972119 15.509773 15.985477 15.523083 15.998507 C 15.529483 16.004807 15.535734 16.010523 15.542204 16.016593 C 15.562544 16.035673 15.583295 16.053874 15.604215 16.070854 C 15.618135 16.082154 15.631913 16.09306 15.646073 16.10341 C 15.660123 16.11369 15.674178 16.123545 15.688448 16.132865 L 15.688965 16.132865 C 15.703175 16.142165 15.717436 16.1509 15.731856 16.15922 C 15.746276 16.16752 15.760654 16.175652 15.775264 16.182992 L 15.775781 16.182992 C 15.790391 16.190292 15.804906 16.197322 15.819706 16.203662 L 15.820223 16.203662 C 15.835013 16.209962 15.849705 16.215902 15.864665 16.221232 L 15.865181 16.221232 C 15.869881 16.222932 15.874344 16.223866 15.879134 16.225366 C 15.900734 16.232566 15.922853 16.23891 15.944763 16.24397 C 15.948563 16.244844 15.951825 16.24617 15.955615 16.24707 L 15.956132 16.24707 C 15.971382 16.25037 15.986734 16.253139 16.002124 16.255339 C 16.017504 16.257539 16.033123 16.259406 16.048633 16.260506 C 16.064323 16.261606 16.080385 16.262056 16.096175 16.262056 C 16.147165 16.26197 16.197353 16.255966 16.24707 16.244486 C 16.26898 16.239386 16.290583 16.233083 16.312183 16.225883 C 16.404183 16.195233 16.493251 16.14567 16.577799 16.078605 C 16.580999 16.076105 16.584418 16.073454 16.587618 16.070854 C 16.615248 16.048434 16.64215 16.024567 16.66875 15.998507 C 16.68205 15.985477 16.694984 15.971592 16.708024 15.957682 C 16.740974 15.922482 16.773102 15.884153 16.804142 15.843477 C 16.846762 15.787637 16.887563 15.727152 16.926099 15.661576 C 16.948249 15.623876 16.970034 15.585011 16.990694 15.544271 C 17.032084 15.462651 17.070125 15.37477 17.104899 15.281755 C 17.157069 15.142209 17.201237 14.990789 17.236157 14.828552 C 17.258607 14.721961 17.266886 14.61081 17.263546 14.497306 C 17.260246 14.383802 17.245441 14.267476 17.221171 14.150557 C 17.164581 13.877607 17.057514 13.600455 16.931266 13.340788 C 16.895246 13.266728 16.857566 13.193911 16.819128 13.12323 C 16.761308 13.0169 16.701619 12.915076 16.642395 12.819373 C 16.484631 12.564433 16.330576 12.353542 16.2264 12.219409 C 16.14848 12.119078 16.098368 12.062103 16.095658 12.061796 z " />
  <defs
     id="defs1" />
  <sodipodi:namedview
     id="namedview1"
     pagecolor="#ffffff"
     bordercolor="#000000"
     borderopacity="0.25"
     inkscape:showpageshadow="2"
     inkscape:pageopacity="0.0"
     inkscape:pagecheckerboard="0"
     inkscape:deskcolor="#d1d1d1"
     inkscape:document-units="mm"
     inkscape:zoom="1.5705983"
     inkscape:cx="36.610252"
     inkscape:cy="138.80061"
     inkscape:window-width="1680"
     inkscape:window-height="997"
     inkscape:window-x="0"
     inkscape:window-y="415"
     inkscape:window-maximized="0"
     inkscape:current-layer="svg1" />
  <!-- Candle Body -->
  <!-- Flame -->
  <!-- Wick -->
  <path
     id="rect13"
     style="fill:none;stroke:#ff0000;stroke-width:0.075;stroke-dasharray:none;stroke-opacity:1"
     d="m 16.095646,6.9857227 c -0.02068,0.00414 -0.926583,1.0742747 -1.749764,2.5176758 -0.05155,0.09039 -0.102817,0.1817786 -0.153479,0.2749186 l -5.16e-4,5.168e-4 c -0.101146,0.186003 -0.200299,0.3776421 -0.295073,0.5725751 -0.189849,0.390478 -0.362419,0.796174 -0.503845,1.206128 -0.07071,0.204978 -0.133653,0.410744 -0.186552,0.6165 -0.185161,0.720143 -0.249467,1.437357 -0.111621,2.091861 0.0919,0.42694 0.208421,0.825983 0.345715,1.193209 0.04574,0.122398 0.09341,0.240986 0.143661,0.356051 0.01611,0.03691 0.03409,0.07084 0.05064,0.10697 0.08665,0.189089 0.17742,0.370087 0.275435,0.536918 1.66e-4,2.82e-4 8.67e-4,2.34e-4 10e-4,5.17e-4 0.01591,0.02706 0.03288,0.05154 0.04909,0.07803 h -0.829923 c -1.127283,0 -2.034501,3.92759 -2.034501,8.806181 v 28.845785 8.801013 7.000089 H 13.09579 V 63.91403 62.990572 61.445447 h 0.09974 0.399976 v -4.630725 a 2.5,2.5 0 0 1 2.500105,-2.499589 2.5,2.5 0 0 1 2.500106,2.499589 v 4.630725 h 0.399976 0.100252 v 1.545125 0.923458 6.076631 h 1.999878 V 62.990573 48.037997 25.343775 c 0,-4.878591 -0.907735,-8.806181 -2.035018,-8.806181 h -0.829923 c 0.01636,-0.02657 0.03357,-0.05126 0.04961,-0.07855 0.05829,-0.09921 0.115125,-0.202336 0.169499,-0.309542 0.10891,-0.214784 0.20925,-0.445104 0.300756,-0.68988 0.1373,-0.367226 0.254333,-0.766786 0.346233,-1.193726 0.0591,-0.2805 0.08065,-0.572568 0.07186,-0.871262 -0.0087,-0.298696 -0.04827,-0.604407 -0.112138,-0.912089 -0.149021,-0.718014 -0.430508,-1.447285 -0.76274,-2.130619 -0.09478,-0.1949 -0.193914,-0.3870891 -0.295073,-0.5730921 C 17.846742,9.4990179 17.690169,9.2317642 17.534318,8.9799162 17.119149,8.3090212 16.713443,7.7531498 16.439295,7.4001677 16.234236,7.1361405 16.102778,6.9865293 16.095646,6.9857227 Z" />
  <rect
     style="fill:#000000;fill-opacity:1;stroke:none;stroke-width:0.0446035"
     id="rect19"
     width="0.5"
     height="13"
     x="17.797802"
     y="16.537594"
     rx="0.20368667" />
  <rect
     style="fill:#000000;fill-opacity:1;stroke:none;stroke-width:0.0349899"
     id="rect20"
     width="0.5"
     height="8"
     x="16.796743"
     y="16.537594"
     rx="0.20368667" />
  <path
     id="path21"
     style="fill:none;stroke:#ff0000;stroke-width:0.075;stroke-dasharray:none;stroke-opacity:1"
     d="m 26.999733,15.452389 c -0.02068,0.0041 -0.926583,1.074274 -1.749764,2.517676 -0.05155,0.09039 -0.102817,0.181778 -0.153479,0.274918 l -5.16e-4,5.17e-4 c -0.101146,0.186003 -0.200299,0.377642 -0.295073,0.572575 -0.189849,0.390478 -0.362419,0.796174 -0.503845,1.206128 -0.07071,0.204978 -0.133653,0.410744 -0.186552,0.616499 -0.185161,0.720143 -0.249467,1.437358 -0.111621,2.091861 0.0919,0.426941 0.208421,0.825984 0.345715,1.19321 0.04574,0.122398 0.0934,0.240987 0.143661,0.356052 0.01611,0.03691 0.03409,0.07084 0.05064,0.10697 0.08665,0.189089 0.17742,0.370087 0.275435,0.536918 1.66e-4,2.82e-4 8.67e-4,2.34e-4 0.001,5.17e-4 0.01591,0.02706 0.03288,0.05154 0.04909,0.07803 H 24.034501 C 22.907218,25.00426 22,28.93185 22,33.810441 v 20.379118 8.801013 7.000089 h 1.999877 V 63.91403 62.990572 61.445447 h 0.09974 0.399976 v -4.630725 c 2.27e-4,-1.380592 1.119513,-2.499647 2.500105,-2.499589 1.380593,-5.8e-5 2.499879,1.118997 2.500106,2.499589 v 4.630725 h 0.399976 0.100252 v 1.545125 0.923458 6.076631 H 31.99991 V 62.990573 48.037997 33.810442 c 0,-4.878591 -0.907735,-8.806181 -2.035018,-8.806181 h -0.829923 c 0.01636,-0.02657 0.03357,-0.05126 0.04961,-0.07855 0.05829,-0.09921 0.115125,-0.202336 0.169499,-0.309542 0.10891,-0.214784 0.20925,-0.445104 0.300756,-0.689881 0.1373,-0.367226 0.254333,-0.766786 0.346233,-1.193727 0.05907,-0.280502 0.08062,-0.572569 0.07183,-0.871263 -0.0087,-0.298696 -0.04827,-0.604407 -0.112138,-0.912089 -0.148991,-0.718012 -0.430478,-1.447284 -0.76271,-2.130617 -0.09478,-0.1949 -0.193914,-0.387089 -0.295073,-0.573092 -0.152147,-0.279816 -0.30872,-0.54707 -0.464571,-0.798918 -0.415169,-0.670895 -0.820875,-1.226766 -1.095023,-1.579748 -0.205059,-0.264027 -0.336517,-0.413639 -0.343649,-0.414445 z"
     sodipodi:nodetypes="csccsscccccsccsscccccccccccccccccccccsscccccccccssc" />
  <rect
     style="fill:#000000;fill-opacity:1;stroke:none;stroke-width:0.0446035"
     id="rect22"
     width="0.5"
     height="13"
     x="28.701887"
     y="25.004259"
     rx="0.20368667" />
  <rect
     style="fill:#000000;fill-opacity:1;stroke:none;stroke-width:0.0349899"
     id="rect23"
     width="0.5"
     height="8"
     x="27.700827"
     y="25.004259"
     rx="0.20368667" />
  <path
     id="path1"
     style="fill:#000000;stroke:none;stroke-width:0.0201133"
     inkscape:transform-center-x="1.6039786e-05"
     inkscape:transform-center-y="-0.44768693"
     d="m 26.99994,20.528675 c -0.0042,8.58e-4 -0.106479,0.120818 -0.24753,0.314193 0.05371,0.07275 0.118839,0.166141 0.185519,0.273885 0.0339,0.05475 0.0682,0.113319 0.101285,0.174149 0.022,0.04044 0.04346,0.08166 0.06408,0.124024 0.07222,0.148552 0.133492,0.307387 0.165882,0.463537 0.0139,0.06689 0.02229,0.133528 0.02429,0.198438 0.0019,0.06493 -0.0027,0.128146 -0.0155,0.189136 -0.01995,0.09281 -0.04558,0.179575 -0.07545,0.259415 -0.01989,0.05322 -0.04142,0.103659 -0.06511,0.150379 -0.01184,0.02328 -0.02456,0.0456 -0.03721,0.06718 -0.02204,0.03752 -0.04536,0.07193 -0.06976,0.10387 -0.01778,0.02326 -0.03593,0.0455 -0.05478,0.06563 -0.0074,0.0079 -0.01524,0.01585 -0.02274,0.02325 -0.0152,0.01494 -0.03016,0.02852 -0.04599,0.04134 -0.0022,0.0016 -0.0037,0.0026 -0.0057,0.0041 -0.04837,0.03836 -0.09933,0.06668 -0.151928,0.08423 -0.01236,0.0041 -0.0247,0.0078 -0.03721,0.01085 -0.02843,0.0069 -0.05763,0.01028 -0.08682,0.01033 -0.009,0 -0.01787,-3.76e-4 -0.02687,-0.001 -0.0089,-0.0011 -0.01765,-0.0019 -0.02635,-0.0031 h -5.17e-4 c -0.0088,-0.0014 -0.01765,-0.0027 -0.02635,-0.0047 -0.0018,-9e-4 -0.0042,-0.0016 -0.0062,-0.0021 -0.01251,-0.0029 -0.02485,-0.0061 -0.03721,-0.01033 -0.0027,-5e-4 -0.0056,-0.0018 -0.0083,-0.0026 h -5.16e-4 c -0.0086,-0.0029 -0.01682,-0.0065 -0.02532,-0.0098 -0.0085,-0.0036 -0.01692,-0.0076 -0.02532,-0.01189 -0.0083,-0.0042 -0.0165,-0.0093 -0.02481,-0.01395 h -5.17e-4 c -0.0083,-0.0048 -0.01619,-0.0097 -0.02429,-0.01499 h -5.16e-4 c -0.0082,-0.0053 -0.01577,-0.01054 -0.02377,-0.01654 -0.0081,-0.0059 -0.01639,-0.0122 -0.02429,-0.0186 -0.01197,-0.0097 -0.0235,-0.02011 -0.03514,-0.03101 -0.0036,-0.0033 -0.008,-0.0076 -0.01137,-0.01085 -0.0076,-0.0074 -0.01482,-0.01484 -0.02222,-0.02274 l -5.17e-4,-5.17e-4 c -0.01486,-0.01586 -0.02922,-0.03229 -0.04341,-0.05013 v -5.17e-4 c -0.0036,-0.0047 -0.0079,-0.0098 -0.01137,-0.01447 -0.01034,-0.01351 -0.02059,-0.02731 -0.03049,-0.04186 -0.01347,-0.01968 -0.02663,-0.04047 -0.03927,-0.06201 -0.02134,-0.03627 -0.04111,-0.07568 -0.05994,-0.116789 -0.0036,-0.0078 -0.0076,-0.01525 -0.01085,-0.02325 -0.01096,-0.025 -0.02152,-0.05091 -0.03152,-0.07751 -0.02981,-0.07983 -0.05494,-0.166595 -0.07493,-0.259415 -0.02687,0.07789 -0.0507,0.155907 -0.0708,0.234094 -0.07036,0.273654 -0.09475,0.546071 -0.04237,0.794783 0.03492,0.162237 0.07909,0.314175 0.131258,0.45372 0.01738,0.04651 0.03568,0.09166 0.05478,0.135392 0.0061,0.01403 0.01283,0.02658 0.01912,0.04031 0.03293,0.07185 0.06765,0.140726 0.104903,0.204122 v 5.17e-4 c 0.02213,0.03764 0.04522,0.07353 0.06873,0.108004 0.01735,0.02545 0.03518,0.04919 0.05323,0.07286 0.0065,0.0085 0.01256,0.01813 0.01912,0.02635 h 5.16e-4 c 0.02479,0.03116 0.05001,0.06063 0.07597,0.08837 l 5.16e-4,5.17e-4 c 0.01303,0.01392 0.02596,0.02728 0.03927,0.04031 0.0064,0.0063 0.01265,0.01202 0.01912,0.01809 0.02034,0.01908 0.04109,0.03728 0.06201,0.05426 0.01392,0.0113 0.0277,0.02221 0.04186,0.03256 0.01405,0.01028 0.02811,0.02013 0.04237,0.02945 h 5.17e-4 c 0.01421,0.0093 0.02847,0.01804 0.04289,0.02635 0.01442,0.0083 0.0288,0.01643 0.04341,0.02377 h 5.17e-4 c 0.01461,0.0073 0.02913,0.01433 0.04392,0.02067 h 5.17e-4 c 0.01479,0.0063 0.02948,0.01224 0.04444,0.01757 h 5.16e-4 c 0.0047,0.0017 0.0092,0.0026 0.01395,0.0041 0.0216,0.0072 0.04372,0.01354 0.06563,0.0186 0.0038,8.74e-4 0.0071,0.0022 0.01085,0.0031 h 5.17e-4 c 0.01525,0.0033 0.0306,0.0061 0.04599,0.0083 0.01538,0.0022 0.031,0.0041 0.04651,0.0052 0.01569,0.0011 0.03175,0.0015 0.04754,0.0015 0.05099,-8.6e-5 0.101178,-0.0061 0.150895,-0.01757 0.02191,-0.0051 0.04351,-0.0114 0.06511,-0.0186 0.092,-0.03065 0.181068,-0.08021 0.265616,-0.147278 0.0032,-0.0025 0.0066,-0.0052 0.0098,-0.0078 0.02763,-0.02242 0.05453,-0.04629 0.08113,-0.07235 0.0133,-0.01303 0.02623,-0.02692 0.03927,-0.04083 0.03295,-0.0352 0.06508,-0.07353 0.09612,-0.114205 0.04262,-0.05584 0.08342,-0.116325 0.121957,-0.181901 0.02215,-0.0377 0.04394,-0.07657 0.0646,-0.117305 0.04139,-0.08162 0.07943,-0.169501 0.114205,-0.262516 0.05217,-0.139546 0.09634,-0.290966 0.131258,-0.453203 0.02245,-0.106591 0.03073,-0.217742 0.02739,-0.331246 -0.0033,-0.113504 -0.0181,-0.22983 -0.04237,-0.346749 -0.05659,-0.27295 -0.163657,-0.550102 -0.289905,-0.809769 -0.03602,-0.07406 -0.0737,-0.146877 -0.112138,-0.217558 -0.05782,-0.10633 -0.117509,-0.208154 -0.176733,-0.303857 -0.157764,-0.25494 -0.311819,-0.465831 -0.415995,-0.599964 -0.07792,-0.100331 -0.128032,-0.157306 -0.130742,-0.157613 z" />
</svg>
