<?xml version="1.0" encoding="UTF-8" standalone="no"?>
<!-- Created with Inkscape (http://www.inkscape.org/) -->

<svg
   width="239.29393mm"
   height="208.90001mm"
   viewBox="0 0 847.89183 740.19685"
   id="svg2"
   version="1.1"
   inkscape:version="1.4 (e7c3feb1, 2024-10-09)"
   sodipodi:docname="kasten.svg"
   inkscape:export-filename="/Users/sven/Desktop/ChristmasMelody/case.png"
   inkscape:export-xdpi="70.008598"
   inkscape:export-ydpi="70.008598"
   xmlns:inkscape="http://www.inkscape.org/namespaces/inkscape"
   xmlns:sodipodi="http://sodipodi.sourceforge.net/DTD/sodipodi-0.dtd"
   xmlns="http://www.w3.org/2000/svg"
   xmlns:svg="http://www.w3.org/2000/svg"
   xmlns:rdf="http://www.w3.org/1999/02/22-rdf-syntax-ns#"
   xmlns:cc="http://creativecommons.org/ns#"
   xmlns:dc="http://purl.org/dc/elements/1.1/">
  <defs
     id="defs4" />
  <sodipodi:namedview
     id="base"
     pagecolor="#ffffff"
     bordercolor="#666666"
     borderopacity="1.0"
     inkscape:pageopacity="0.0"
     inkscape:pageshadow="2"
     inkscape:zoom="0.35140087"
     inkscape:cx="305.91842"
     inkscape:cy="341.49033"
     inkscape:document-units="mm"
     inkscape:current-layer="layer3"
     showgrid="false"
     inkscape:window-width="1680"
     inkscape:window-height="997"
     inkscape:window-x="359"
     inkscape:window-y="1465"
     inkscape:window-maximized="1"
     showguides="false"
     inkscape:guide-bbox="true"
     inkscape:showpageshadow="2"
     inkscape:pagecheckerboard="0"
     inkscape:deskcolor="#d1d1d1">
    <inkscape:grid
       type="xygrid"
       id="grid4170"
       originx="-337.18115"
       originy="465.37076"
       spacingy="1"
       spacingx="1"
       units="mm"
       visible="false" />
  </sodipodi:namedview>
  <metadata
     id="metadata7">
    <rdf:RDF>
      <cc:Work
         rdf:about="">
        <dc:format>image/svg+xml</dc:format>
        <dc:type
           rdf:resource="http://purl.org/dc/dcmitype/StillImage" />
      </cc:Work>
    </rdf:RDF>
  </metadata>
  <g
     inkscape:groupmode="layer"
     id="layer3"
     inkscape:label="Labels"
     style="display:inline"
     transform="translate(-337.18115,157.10308)">
    <text
       xml:space="preserve"
       style="font-style:normal;font-weight:normal;line-height:0%;font-family:sans-serif;text-align:start;letter-spacing:0px;word-spacing:0px;text-anchor:start;fill:#000000;fill-opacity:1;stroke:none;stroke-width:1px;stroke-linecap:butt;stroke-linejoin:miter;stroke-opacity:1"
       x="84.922897"
       y="347.92471"
       id="text4157"
       inkscape:export-xdpi="119.98637"
       inkscape:export-ydpi="119.98637"
       transform="rotate(-90)"><tspan
         sodipodi:role="line"
         id="tspan4159"
         x="84.922897"
         y="347.92471"
         style="font-size:10px;line-height:1.25;text-align:start;text-anchor:start;fill:#0000ff">deckel</tspan></text>
    <text
       xml:space="preserve"
       style="font-style:normal;font-weight:normal;line-height:0%;font-family:sans-serif;text-align:start;letter-spacing:0px;word-spacing:0px;text-anchor:start;fill:#000000;fill-opacity:1;stroke:none;stroke-width:1px;stroke-linecap:butt;stroke-linejoin:miter;stroke-opacity:1"
       x="-249.99467"
       y="347.92471"
       id="text4157-5"
       inkscape:export-xdpi="119.98637"
       inkscape:export-ydpi="119.98637"
       transform="rotate(-90)"><tspan
         sodipodi:role="line"
         id="tspan4159-2"
         x="-249.99467"
         y="347.92471"
         style="font-size:10px;line-height:1.25;text-align:start;text-anchor:start;fill:#0000ff">boden</tspan></text>
    <text
       id="text6130"
       y="954.42206"
       x="-230.75519"
       style="font-style:normal;font-weight:normal;line-height:0%;font-family:sans-serif;text-align:start;letter-spacing:0px;word-spacing:0px;text-anchor:start;fill:#000000;fill-opacity:1;stroke:none;stroke-width:1px;stroke-linecap:butt;stroke-linejoin:miter;stroke-opacity:1"
       xml:space="preserve"
       inkscape:export-xdpi="119.98637"
       inkscape:export-ydpi="119.98637"
       transform="rotate(-90)"><tspan
         style="font-size:10px;line-height:1.25;text-align:start;text-anchor:start;fill:#0000ff"
         y="954.42206"
         x="-230.75519"
         id="tspan6132"
         sodipodi:role="line">fronten</tspan></text>
    <text
       xml:space="preserve"
       style="font-style:normal;font-weight:normal;line-height:0%;font-family:sans-serif;text-align:start;letter-spacing:0px;word-spacing:0px;text-anchor:start;display:inline;fill:#000000;fill-opacity:1;stroke:none;stroke-width:1px;stroke-linecap:butt;stroke-linejoin:miter;stroke-opacity:1"
       x="1054.662"
       y="-31.844494"
       id="text6134"
       inkscape:export-xdpi="119.98637"
       inkscape:export-ydpi="119.98637"><tspan
         sodipodi:role="line"
         id="tspan6136"
         x="1054.662"
         y="-31.844494"
         style="font-size:10px;line-height:1.25;text-align:start;text-anchor:start;fill:#0000ff">usb</tspan></text>
    <text
       xml:space="preserve"
       style="font-style:normal;font-weight:normal;line-height:0%;font-family:sans-serif;text-align:start;letter-spacing:0px;word-spacing:0px;text-anchor:start;display:inline;fill:#000000;fill-opacity:1;stroke:none;stroke-width:1px;stroke-linecap:butt;stroke-linejoin:miter;stroke-opacity:1"
       x="1048.8832"
       y="464.99338"
       id="text4157-5-1"
       inkscape:export-xdpi="119.98637"
       inkscape:export-ydpi="119.98637"><tspan
         sodipodi:role="line"
         id="tspan4159-2-7"
         x="1048.8832"
         y="464.99338"
         style="font-size:10px;line-height:1.25;text-align:start;text-anchor:start;fill:#0000ff">taster</tspan></text>
    <text
       xml:space="preserve"
       style="font-style:normal;font-weight:normal;line-height:0%;font-family:sans-serif;text-align:start;letter-spacing:0px;word-spacing:0px;text-anchor:start;display:inline;fill:#000000;fill-opacity:1;stroke:none;stroke-width:1px;stroke-linecap:butt;stroke-linejoin:miter;stroke-opacity:1"
       x="744.88239"
       y="329.39383"
       id="text21"
       inkscape:export-xdpi="119.98637"
       inkscape:export-ydpi="119.98637"><tspan
         sodipodi:role="line"
         id="tspan21"
         x="744.88239"
         y="329.39383"
         style="font-size:10px;line-height:1.25;text-align:start;text-anchor:start;fill:#0000ff">seiten-</tspan><tspan
         sodipodi:role="line"
         x="744.88239"
         y="341.89383"
         style="font-size:10px;line-height:1.25;text-align:start;text-anchor:start;fill:#0000ff"
         id="tspan22">klappe</tspan></text>
  </g>
  <g
     inkscape:groupmode="layer"
     id="layer2"
     inkscape:label="Engraving"
     style="display:inline"
     transform="translate(-337.18115,157.10308)">
    <path
       style="display:inline;fill:none;fill-opacity:1;stroke:#0000ff;stroke-width:0.327835;stroke-miterlimit:4;stroke-dasharray:none;stroke-opacity:1"
       inkscape:connector-curvature="0"
       id="path4"
       d="m 1143.2735,484.19346 c -0.354,-1.7684 -2.476,-2.8294 -4.2443,-2.4758 l -22.9887,6.0126 -12.3786,-7.0737 28.6477,-7.7807 c 1.7683,-0.354 3.1831,-2.4759 2.4756,-4.2442 -0.707,-1.7683 -2.4756,-3.1831 -4.2442,-2.4756 l -35.3674,9.5491 -10.9639,-6.3662 c 1.0612,-2.4756 1.4148,-4.9514 1.4148,-7.7808 0,-2.8293 -0.354,-5.3049 -1.4148,-7.7807 l 10.9639,-6.3662 35.3674,9.5493 c 1.7686,0.354 3.8906,-0.707 4.2442,-2.4759 0.354,-1.7683 -0.707,-3.8903 -2.4756,-4.2439 l -28.6477,-7.781 12.3786,-7.0734 22.9887,6.0124 c 1.7683,0.354 3.8905,-0.707 4.2443,-2.4756 0.354,-1.7685 -0.707,-3.8904 -2.476,-4.2441 l -16.2688,-4.2442 14.1467,-8.1345 c 1.7688,-1.061 2.1221,-3.1831 1.415,-4.9514 -1.0612,-1.7685 -3.183,-2.1221 -4.9514,-1.4148 l -14.147,8.1345 4.244,-16.269 c 0.354,-1.7683 -0.707,-3.8904 -2.4757,-4.2441 -1.7683,-0.354 -3.8904,0.707 -4.2443,2.4758 l -6.0123,22.989 -12.3786,7.0734 7.7809,-28.6476 c 0.354,-1.7686 -0.708,-3.8906 -2.4757,-4.2442 -1.7684,-0.354 -3.8905,0.707 -4.2443,2.4756 l -9.5491,35.3677 -10.964,6.366 c -3.5367,-4.244 -8.1344,-6.7198 -13.4396,-7.7808 v -12.7322 l 25.8183,-25.4648 c 1.4148,-1.4146 1.4148,-3.5366 0,-4.9514 -1.4147,-1.4146 -3.5367,-1.4146 -4.9514,0 l -20.8669,20.5132 v -14.147 l 16.9764,-16.9765 c 1.4148,-1.4146 1.4148,-3.5367 0,-4.9514 -1.4147,-1.4148 -3.5368,-1.4148 -4.9516,0 l -12.0248,12.0248 v -16.269 c 0,-2.122 -1.4146,-3.5366 -3.5367,-3.5366 -2.1221,0 -3.5369,1.4146 -3.5369,3.5366 v 16.269 l -11.6711,-11.6711 c -1.4147,-1.4148 -3.5368,-1.4148 -4.9513,0 -1.4151,1.4146 -1.4151,3.5366 0,4.9514 l 16.6224,16.9765 v 14.147 l -20.8667,-20.8669 c -1.4148,-1.4146 -3.5368,-1.4146 -4.9515,0 -1.4146,1.4148 -1.4146,3.5368 0,4.9514 l 25.8182,25.8183 v 12.7324 c -5.3051,0.707 -9.9027,3.5367 -13.4396,7.7808 l -10.9639,-6.3662 -9.5491,-35.3674 c -0.354,-1.7683 -2.4757,-3.1831 -4.2441,-2.4758 -1.7685,0.354 -3.1832,2.4758 -2.4758,4.2441 l 7.7807,28.6477 -12.3784,-7.0735 -6.0124,-22.989 c -0.354,-1.7683 -2.4759,-3.1829 -4.2443,-2.4756 -1.7685,0.354 -3.1829,2.4756 -2.4757,4.2442 l 4.2441,16.269 -14.14701,-8.1345 c -1.7683,-1.0611 -3.8902,-0.354 -4.9514,1.4146 -1.0609,1.7685 -0.354,3.8905 1.4147,4.9516 l 14.14681,8.1345 -16.26891,4.2441 c -1.7683,0.354 -3.1832,2.4756 -2.4757,4.2439 0.354,1.7686 2.4757,2.8296 4.2443,2.4759 l 22.98861,-6.0125 12.3788,7.0735 -28.6477,7.7808 c -2.1221,0 -3.18331,1.7683 -2.4759,3.8903 0.354,1.7686 2.4759,2.8296 4.2442,2.4759 l 35.3675,-9.5493 10.9639,6.3662 c -1.0612,2.4758 -1.4147,4.9514 -1.4147,7.7807 0,2.8294 0.354,5.3052 1.4147,7.7808 l -10.9639,6.3662 -35.3675,-9.5491 c -2.1221,-0.354 -3.8904,0.707 -4.2442,2.4756 -0.35401,1.7683 0.708,3.8904 2.4759,4.2442 l 28.6477,7.7807 -12.3788,7.0737 -22.98861,-6.0126 c -1.7686,-0.354 -3.8907,0.707 -4.2443,2.4758 -0.354,1.7683 0.707,3.8904 2.4757,4.2441 l 16.26891,4.2441 -14.14681,8.1345 c -1.7685,1.0611 -2.1221,3.1831 -1.4147,4.9515 1.0612,1.7683 3.1831,2.122 4.9514,1.4147 l 14.14701,-8.1345 -4.2441,16.2691 c -0.354,1.7683 0.707,3.8903 2.4757,4.2441 1.7684,0.353 3.8905,-0.708 4.2443,-2.4758 l 6.0124,-22.989 12.3784,-7.0735 -7.7807,28.6477 c -0.354,1.7685 0.707,3.8906 2.4758,4.2441 1.7684,0.354 3.8904,-0.707 4.2441,-2.4756 l 9.5491,-35.3676 10.9639,-6.3662 c 3.5369,4.2441 8.1345,6.7199 13.4396,7.781 v 12.7322 l -25.8182,25.4647 c -1.4146,1.4146 -1.4146,3.5367 0,4.9515 1.4147,1.41451 3.5367,1.41451 4.9515,0 l 20.8667,-20.8669 v 14.1469 l -16.6224,16.62281 c -1.4151,1.4146 -1.4151,3.5366 0,4.9514 1.4145,1.4148 3.5366,1.4148 4.9513,0 l 11.6711,-11.6711 v 16.6225 c 0,2.1221 1.4148,3.5369 3.5369,3.5369 2.1221,0 3.5367,-1.4148 3.5367,-3.5369 v -16.269 l 11.6712,11.6714 c 1.4148,1.4145 3.5369,1.4145 4.9515,0 1.4149,-1.4148 1.4149,-3.5369 0,-4.9515 l -16.6227,-16.97651 v -14.1469 l 20.8669,20.8669 c 1.4147,1.41451 3.5367,1.41451 4.9514,0 1.4148,-1.4148 1.4148,-3.5369 0,-4.9515 l -25.8183,-25.8183 v -12.7324 c 5.3052,-0.707 9.9029,-3.5368 13.4396,-7.7807 l 10.964,6.366 9.5491,35.3676 c 0.354,1.4148 1.7685,2.4758 3.5369,2.4758 2.4756,0 3.8904,-2.1221 3.5367,-4.5979 l -7.7808,-28.6477 12.3788,7.0735 6.0123,22.989 c 0.354,1.7683 2.4758,2.8293 4.2442,2.4756 1.7683,-0.353 3.1831,-2.4756 2.4755,-4.2439 l -4.2439,-16.2693 14.147,8.1345 c 1.7683,1.0611 3.8903,0.354 4.9515,-1.4145 1.0609,-1.7685 0.353,-3.8906 -1.415,-4.9516 l -14.1468,-8.1346 16.269,-4.2439 c 1.7683,0.354 2.8292,-1.7685 2.1221,-3.5368 z m -79.5769,-7.7808 c 0,0 0,0 0,0 0,0 0,0 0,0 -8.1344,0 -14.8546,-6.7199 -14.8546,-14.8545 0,-8.1345 6.7202,-14.8542 14.8546,-14.8542 0,0 0,0 0,0 0,0 0,0 0,0 8.1344,0 14.8542,6.7197 14.8542,14.8542 0,8.1346 -6.7198,14.8545 -14.8542,14.8545 z" />
    <text
       xml:space="preserve"
       style="font-weight:bold;font-size:23.75px;line-height:1.4;font-family:'Source Sans Pro';-inkscape-font-specification:'Source Sans Pro Bold';text-align:start;letter-spacing:0.18291px;writing-mode:lr-tb;direction:ltr;text-anchor:start;display:inline;fill:#000000;stroke:none;stroke-width:0.852624;stroke-dasharray:none;stroke-opacity:1"
       x="981.77026"
       y="273.2251"
       id="text40"><tspan
         sodipodi:role="line"
         style="font-size:23.75px;fill:#000000;stroke:none;stroke-width:0.852621"
         x="981.77026"
         y="273.2251"
         id="tspan41">AdventBox</tspan></text>
    <text
       xml:space="preserve"
       style="font-style:normal;font-variant:normal;font-weight:600;font-stretch:normal;font-size:15px;line-height:1.4;font-family:'Source Sans Pro';-inkscape-font-specification:'Source Sans Pro Semi-Bold';text-align:start;letter-spacing:0.115658px;writing-mode:lr-tb;direction:ltr;text-anchor:start;display:inline;fill:#000000;stroke:none;stroke-width:0.539133;stroke-dasharray:none;stroke-opacity:1"
       x="980.89276"
       y="287.36002"
       id="text42"><tspan
         sodipodi:role="line"
         style="font-style:normal;font-variant:normal;font-weight:600;font-stretch:normal;font-size:15px;font-family:'Source Sans Pro';-inkscape-font-specification:'Source Sans Pro Semi-Bold';fill:#000000;stroke:none;stroke-width:0.539131"
         x="980.89276"
         y="287.36002"
         id="tspan42">CoderDojo Potsdam 2024</tspan></text>
  </g>
  <g
     inkscape:label="Cutting"
     inkscape:groupmode="layer"
     id="layer1"
     style="display:inline"
     transform="translate(-337.18115,157.10308)">
    <circle
       style="opacity:1;fill:none;fill-opacity:1;stroke:#ff0000;stroke-width:0.292144;stroke-linecap:round;stroke-linejoin:round;stroke-miterlimit:10;stroke-dasharray:none;stroke-opacity:1"
       id="path4378"
       cx="153.74155"
       cy="437.23798"
       inkscape:export-xdpi="119.98637"
       inkscape:export-ydpi="119.98637"
       r="0" />
    <g
       id="g15"
       transform="translate(-380.93818,-345.00875)" />
    <g
       id="g19"
       transform="matrix(1,0,0,-1,-380.93818,1408.9866)" />
    <g
       id="g23"
       transform="rotate(90,513.79786,514.02419)" />
    <g
       id="g20"
       transform="translate(3.7499998,6.7745702)">
      <circle
         style="fill:none;stroke:#ff0000;stroke-width:0.265748;stroke-dasharray:none;stroke-opacity:1"
         id="path30"
         cx="454.78943"
         cy="36.927856"
         r="92.125984" />
      <path
         d="m 333.60833,-16.930424 v 36.8504 h 14.17319 v 34.01574 h -14.17319 v 36.85039 34.015744 36.8504 h 14.17319 v 35.4331 h 17.7166 36.85035 34.01575 36.85039 34.01575 36.85039 17.71654 v -35.4331 h 14.17323 v -36.8504 -34.015744 -36.85039 h -14.17323 v -34.01574 h 14.17323 v -36.8504 -34.01575 -36.85039 h -14.17323 v -35.433066 h -17.71654 -36.85039 -34.01575 -36.85039 -34.01575 -36.85035 -17.7166 v 35.433066 h -14.17319 v 36.85039 z"
         id="top_outsideCutPath"
         stroke="#FF0000"
         stroke-width="0.1"
         style="font-size:12px;fill:none;fill-rule:evenodd;stroke:#ff0000;stroke-width:0.354331;stroke-linecap:round"
         vector-effect="non-scaling-stroke"
         sodipodi:nodetypes="ccccccccccccccccccccccccccccccccccccccccc" />
    </g>
    <path
       d="m 351.53154,295.94161 v 34.01574 h -14.17322 v 36.8504 h 14.17322 v 34.01574 h -14.17322 v 36.8504 h 14.17322 v 34.01575 h -14.17322 v 36.85039 h 14.17322 v 35.43307 h 17.71653 v 14.17323 h 36.85039 V 543.9731 h 34.01575 v 14.17323 H 476.9646 V 543.9731 h 34.01575 v 14.17323 h 36.85039 V 543.9731 h 17.71654 v -35.43307 h 14.17323 v -36.85039 h -14.17323 v -34.01575 h 14.17324 v -36.8504 h -14.17323 v -34.01574 h 14.17323 v -36.8504 h -14.17323 v -34.01574 h 14.17323 v -36.85039 h -14.17323 v -35.43307 h -17.71654 v -14.17323 h -36.8504 v 14.17323 H 476.9646 v -14.17323 h -36.85039 v 14.17323 h -34.01575 v -14.17323 h -36.85039 v 14.17323 h -17.71653 v 35.43307 h -14.17322 v 36.85039 z"
       id="bottom_outsideCutPath"
       stroke="#FF0000"
       stroke-width="0.1"
       style="font-size:12px;fill:none;fill-rule:evenodd;stroke:#ff0000;stroke-width:0.354331;stroke-linecap:round"
       vector-effect="non-scaling-stroke" />
    <path
       d="m 885.42334,-142.75268 h -34.01575 v -14.17323 H 814.5572 v 14.17323 h -34.01575 v -14.17323 h -36.85039 v 14.17323 h -34.01575 v -14.17323 h -36.85039 v 14.17323 h -34.01575 v -14.17323 h -51.02362 v 61.65354 h 14.17323 v 34.01575 h -14.17323 v 36.85039 h 14.17323 V 9.60952 h -14.17323 v 36.85039 h 14.17323 v 34.01575 h -14.17323 v 36.85039 h 14.17323 v 34.01575 h -14.17323 v 61.65354 h 51.02362 v -14.17323 h 34.01575 36.85039 34.01575 v 14.17323 h 36.85039 v -14.17323 h 34.01575 36.85039 34.01575 v 14.17323 h 51.02362 V 151.3418 h -14.17323 v -34.01575 h 14.17323 V 80.47566 H 922.27373 V 46.45991 h 14.17323 V 9.60952 h -14.17323 v -34.01575 h 14.17323 v -36.85039 h -14.17323 v -34.01575 h 14.17323 v -61.65354 h -51.02362 z"
       id="path8"
       stroke="#FF0000"
       stroke-width="0.1"
       style="font-size:12px;fill:none;fill-rule:evenodd;stroke:#ff0000;stroke-width:0.354331;stroke-linecap:round"
       vector-effect="non-scaling-stroke"
       sodipodi:nodetypes="ccccccccccccccccccccccccccccccccccccccccccccccccccccccccccccccccc" />
    <g
       id="g17"
       transform="translate(-7.4999996)">
      <path
         d="m 1159.0887,-142.75267 h -34.0157 v -14.1732 h -36.8505 v 14.1732 h -34.0157 v -14.1732 h -36.8504 v 14.1732 h -34.0157 v -14.1732 h -19.1339 v 60.2362 h -14.1732 v 36.8504 h 14.1732 v 34.0157 h -14.1732 v 36.8504 h 14.1732 v 34.0158 h -14.1732 v 36.8504 h 14.1732 v 34.01571 h -14.1732 v 36.85038 h 14.1732 v 60.23622 h 19.1339 34.0157 36.8504 34.0157 36.8505 34.0157 19.1339 v -60.23622 h 14.1732 v -36.85038 h -14.1732 V 81.89302 h 14.1732 V 45.04263 h -14.1732 v -34.0158 h 14.1732 v -36.8504 h -14.1732 v -34.0157 h 14.1732 v -36.8504 h -14.1732 v -60.2362 h -19.1339 z"
         id="path10"
         stroke="#FF0000"
         stroke-width="0.1"
         style="font-size:12px;display:inline;fill:none;fill-rule:evenodd;stroke:#ff0000;stroke-width:0.354331;stroke-linecap:round;stroke-opacity:1"
         vector-effect="non-scaling-stroke"
         sodipodi:nodetypes="ccccccccccccccccccccccccccccccccccccccccccccccccccccccc" />
      <circle
         style="fill:none;stroke:#ff0000;stroke-width:0.265748"
         id="circle36"
         cx="-1071.2147"
         cy="35.567638"
         r="28.346455"
         transform="scale(-1)" />
    </g>
    <g
       id="g18"
       transform="translate(-7.4999996)">
      <circle
         style="fill:none;stroke:#ff0000;stroke-width:0.265748"
         id="circle11"
         cx="1071.2147"
         cy="461.55832"
         r="28.346455" />
      <path
         d="m 983.3407,568.74339 h 34.0157 v 14.1732 h 36.8505 v -14.1732 h 34.0157 v 14.1732 h 36.8504 v -14.1732 h 34.0157 v 14.1732 h 19.1339 v -60.23622 h 14.1732 v -36.85039 h -14.1732 v -34.01575 h 14.1732 v -36.85039 h -14.1732 v -34.01575 h 14.1732 V 344.0977 h -14.1732 V 310.08195 H 964.20684 v 34.01575 h -14.17323 v 36.85039 h 14.17323 v 34.01575 h -14.17323 v 36.85039 h 14.17323 v 34.01575 h -14.17323 v 36.85039 h 14.17323 v 60.23622 h 19.13386 z"
         id="path12"
         stroke="#FF0000"
         stroke-width="0.1"
         style="font-size:12px;fill:none;fill-rule:evenodd;stroke:#ff0000;stroke-width:0.354331;stroke-linecap:round;stroke-opacity:1"
         vector-effect="non-scaling-stroke"
         sodipodi:nodetypes="ccccccccccccccccccccccccccccccccccccccccc" />
      <path
         d="m 1178.2226,310.08195 h 14.1732 v -36.85039 h -14.1732 v -60.23622 h -19.1339 -34.0157 -36.8504 -34.0157 -36.8505 -34.0157 -19.13386 v 60.23622 h -14.17323 v 36.85039 h 14.17323 z"
         id="path13"
         stroke="#FF0000"
         stroke-width="0.1"
         style="font-size:12px;fill:none;fill-rule:evenodd;stroke:#ff0000;stroke-width:0.354331;stroke-linecap:round;stroke-opacity:1"
         vector-effect="non-scaling-stroke"
         sodipodi:nodetypes="ccccccccccccccccc" />
    </g>
    <g
       id="g16">
      <text
         xml:space="preserve"
         style="font-style:normal;font-weight:normal;line-height:0%;font-family:sans-serif;text-align:start;letter-spacing:0px;word-spacing:0px;text-anchor:start;display:inline;fill:#000000;fill-opacity:1;stroke:none;stroke-width:1px;stroke-linecap:butt;stroke-linejoin:miter;stroke-opacity:1"
         x="665.37396"
         y="216.90541"
         id="text4157-5-3"
         inkscape:export-xdpi="119.98637"
         inkscape:export-ydpi="119.98637"
         transform="translate(4.2617447e-6)"><tspan
           sodipodi:role="line"
           id="tspan4159-2-1"
           x="665.37396"
           y="216.90541"
           style="font-size:10px;line-height:1.25;text-align:start;text-anchor:start;fill:#0000ff">seitenteile</tspan></text>
      <path
         id="rect8-9"
         style="display:inline;fill:none;stroke:#ff0000;stroke-width:0.354331;stroke-dasharray:none;stroke-opacity:1"
         inkscape:transform-center-x="-25.132909"
         inkscape:transform-center-y="156.14361"
         d="m 700.3,-268.23128 v -8.54919 h -38.10425 c -9.81496,0 -17.71728,-7.9005 -17.71728,-17.71546 v -7.26379 -38.10424 h -8.5492 v -34.01551 h 8.5492 v -55.6018 h -8.5492 v -34.0155 h 8.5492 v -38.10425 -7.26562 c 0,-9.81496 7.90232,-17.71546 17.71728,-17.71546 H 700.3 v -8.54919 h 34.0155 v 8.54919 h 55.6018 v -8.54919 h 34.01551 v 8.54919 h 38.10424 c 9.81496,0 17.71729,7.9005 17.71729,17.71546 v 45.36987 h 8.54919 v 34.0155 h -8.54919 v 55.6018 h 8.54919 v 34.01551 h -8.54919 v 45.36803 c 0,9.81496 -7.90233,17.71546 -17.71729,17.71546 h -38.10424 v 8.54919 H 789.9173 v -8.54919 h -55.6018 v 8.54919 z"
         transform="scale(1,-1)"
         sodipodi:nodetypes="ccssccccccccccssccccccccssccccccccssccccccc" />
      <path
         d="m 638.80916,568.74336 h 34.01575 v 14.17323 h 36.85039 v -14.17323 h 34.01575 v 14.17323 h 36.85039 v -14.17323 h 34.01575 v 14.17323 h 36.85039 v -14.17323 h 34.01575 v 14.17323 h 51.02362 V 521.26305 H 922.27372 V 487.2473 h 14.17323 v -36.85039 h -14.17323 v -34.01575 h 14.17323 v -36.85039 h -14.17323 v -34.01575 h 14.17323 v -36.85039 h -14.17323 v -34.01575 h 14.17323 v -61.65354 h -51.02362 v 14.17323 h -34.01575 -36.85039 -34.01575 v -14.17323 h -36.85039 v 14.17323 H 709.6753 672.82491 638.80916 v -14.17323 h -51.02362 v 61.65354 h 14.17323 v 34.01575 h -14.17323 v 36.85039 h 14.17323 v 34.01575 h -14.17323 v 36.85039 h 14.17323 v 34.01575 h -14.17323 v 36.85039 h 14.17323 v 34.01575 h -14.17323 v 61.65354 h 51.02362 z"
         id="path9"
         stroke="#FF0000"
         stroke-width="0.1"
         style="font-size:12px;fill:none;fill-rule:evenodd;stroke:#ff0000;stroke-width:0.354331;stroke-linecap:round"
         vector-effect="non-scaling-stroke"
         sodipodi:nodetypes="ccccccccccccccccccccccccccccccccccccccccccccccccccccccccccccccccc" />
      <circle
         style="display:inline;fill:none;stroke:#ff0000;stroke-width:0.265748"
         id="circle16"
         cx="-762.11627"
         cy="-332.99002"
         r="28.346455"
         transform="scale(-1)" />
    </g>
  </g>
</svg>
