<?xml version="1.0" encoding="UTF-8" standalone="no"?>
<!-- Created with Inkscape (http://www.inkscape.org/) -->

<svg
   width="239.29393mm"
   height="208.90001mm"
   viewBox="0 0 847.89183 740.19685"
   id="svg2"
   version="1.1"
   inkscape:version="1.4 (e7c3feb1, 2024-10-09)"
   sodipodi:docname="kasten.svg"
   inkscape:export-filename="/Users/sven/Desktop/ChristmasMelody/case.png"
   inkscape:export-xdpi="70.008598"
   inkscape:export-ydpi="70.008598"
   xmlns:inkscape="http://www.inkscape.org/namespaces/inkscape"
   xmlns:sodipodi="http://sodipodi.sourceforge.net/DTD/sodipodi-0.dtd"
   xmlns="http://www.w3.org/2000/svg"
   xmlns:svg="http://www.w3.org/2000/svg"
   xmlns:rdf="http://www.w3.org/1999/02/22-rdf-syntax-ns#"
   xmlns:cc="http://creativecommons.org/ns#"
   xmlns:dc="http://purl.org/dc/elements/1.1/">
  <defs
     id="defs4" />
  <sodipodi:namedview
     id="base"
     pagecolor="#ffffff"
     bordercolor="#666666"
     borderopacity="1.0"
     inkscape:pageopacity="0.0"
     inkscape:pageshadow="2"
     inkscape:zoom="1.1746081"
     inkscape:cx="684.05792"
     inkscape:cy="480.58581"
     inkscape:document-units="mm"
     inkscape:current-layer="layer2"
     showgrid="false"
     inkscape:window-width="1528"
     inkscape:window-height="992"
     inkscape:window-x="0"
     inkscape:window-y="25"
     inkscape:window-maximized="0"
     showguides="false"
     inkscape:guide-bbox="true"
     inkscape:showpageshadow="2"
     inkscape:pagecheckerboard="0"
     inkscape:deskcolor="#d1d1d1">
    <inkscape:grid
       type="xygrid"
       id="grid4170"
       originx="-337.18115"
       originy="465.37076"
       spacingy="1"
       spacingx="1"
       units="mm"
       visible="false" />
  </sodipodi:namedview>
  <metadata
     id="metadata7">
    <rdf:RDF>
      <cc:Work
         rdf:about="">
        <dc:format>image/svg+xml</dc:format>
        <dc:type
           rdf:resource="http://purl.org/dc/dcmitype/StillImage" />
      </cc:Work>
    </rdf:RDF>
  </metadata>
  <g
     inkscape:groupmode="layer"
     id="layer3"
     inkscape:label="Labels"
     style="display:none"
     transform="translate(-337.18115,157.10308)">
    <text
       xml:space="preserve"
       style="font-style:normal;font-weight:normal;line-height:0%;font-family:sans-serif;text-align:start;letter-spacing:0px;word-spacing:0px;text-anchor:start;fill:#000000;fill-opacity:1;stroke:none;stroke-width:1px;stroke-linecap:butt;stroke-linejoin:miter;stroke-opacity:1"
       x="84.922897"
       y="347.92471"
       id="text4157"
       inkscape:export-xdpi="119.98637"
       inkscape:export-ydpi="119.98637"
       transform="rotate(-90)"><tspan
         sodipodi:role="line"
         id="tspan4159"
         x="84.922897"
         y="347.92471"
         style="font-size:10px;line-height:1.25;text-align:start;text-anchor:start;fill:#0000ff">deckel</tspan></text>
    <text
       xml:space="preserve"
       style="font-style:normal;font-weight:normal;line-height:0%;font-family:sans-serif;text-align:start;letter-spacing:0px;word-spacing:0px;text-anchor:start;fill:#000000;fill-opacity:1;stroke:none;stroke-width:1px;stroke-linecap:butt;stroke-linejoin:miter;stroke-opacity:1"
       x="-249.99467"
       y="347.92471"
       id="text4157-5"
       inkscape:export-xdpi="119.98637"
       inkscape:export-ydpi="119.98637"
       transform="rotate(-90)"><tspan
         sodipodi:role="line"
         id="tspan4159-2"
         x="-249.99467"
         y="347.92471"
         style="font-size:10px;line-height:1.25;text-align:start;text-anchor:start;fill:#0000ff">boden</tspan></text>
    <text
       id="text6130"
       y="954.42206"
       x="-230.75519"
       style="font-style:normal;font-weight:normal;line-height:0%;font-family:sans-serif;text-align:start;letter-spacing:0px;word-spacing:0px;text-anchor:start;fill:#000000;fill-opacity:1;stroke:none;stroke-width:1px;stroke-linecap:butt;stroke-linejoin:miter;stroke-opacity:1"
       xml:space="preserve"
       inkscape:export-xdpi="119.98637"
       inkscape:export-ydpi="119.98637"
       transform="rotate(-90)"><tspan
         style="font-size:10px;line-height:1.25;text-align:start;text-anchor:start;fill:#0000ff"
         y="954.42206"
         x="-230.75519"
         id="tspan6132"
         sodipodi:role="line">fronten</tspan></text>
    <text
       xml:space="preserve"
       style="font-style:normal;font-weight:normal;line-height:0%;font-family:sans-serif;text-align:start;letter-spacing:0px;word-spacing:0px;text-anchor:start;display:inline;fill:#000000;fill-opacity:1;stroke:none;stroke-width:1px;stroke-linecap:butt;stroke-linejoin:miter;stroke-opacity:1"
       x="1054.662"
       y="-31.844494"
       id="text6134"
       inkscape:export-xdpi="119.98637"
       inkscape:export-ydpi="119.98637"><tspan
         sodipodi:role="line"
         id="tspan6136"
         x="1054.662"
         y="-31.844494"
         style="font-size:10px;line-height:1.25;text-align:start;text-anchor:start;fill:#0000ff">usb</tspan></text>
    <text
       xml:space="preserve"
       style="font-style:normal;font-weight:normal;line-height:0%;font-family:sans-serif;text-align:start;letter-spacing:0px;word-spacing:0px;text-anchor:start;display:inline;fill:#000000;fill-opacity:1;stroke:none;stroke-width:1px;stroke-linecap:butt;stroke-linejoin:miter;stroke-opacity:1"
       x="1048.8832"
       y="464.99338"
       id="text4157-5-1"
       inkscape:export-xdpi="119.98637"
       inkscape:export-ydpi="119.98637"><tspan
         sodipodi:role="line"
         id="tspan4159-2-7"
         x="1048.8832"
         y="464.99338"
         style="font-size:10px;line-height:1.25;text-align:start;text-anchor:start;fill:#0000ff">taster</tspan></text>
    <text
       xml:space="preserve"
       style="font-style:normal;font-weight:normal;line-height:0%;font-family:sans-serif;text-align:start;letter-spacing:0px;word-spacing:0px;text-anchor:start;display:inline;fill:#000000;fill-opacity:1;stroke:none;stroke-width:1px;stroke-linecap:butt;stroke-linejoin:miter;stroke-opacity:1"
       x="744.88239"
       y="329.39383"
       id="text21"
       inkscape:export-xdpi="119.98637"
       inkscape:export-ydpi="119.98637"><tspan
         sodipodi:role="line"
         id="tspan21"
         x="744.88239"
         y="329.39383"
         style="font-size:10px;line-height:1.25;text-align:start;text-anchor:start;fill:#0000ff">seiten-</tspan><tspan
         sodipodi:role="line"
         x="744.88239"
         y="341.89383"
         style="font-size:10px;line-height:1.25;text-align:start;text-anchor:start;fill:#0000ff"
         id="tspan22">klappe</tspan></text>
    <text
       xml:space="preserve"
       style="display:inline;font-style:normal;font-weight:normal;line-height:0%;font-family:sans-serif;text-align:start;letter-spacing:0px;word-spacing:0px;text-anchor:start;fill:#000000;fill-opacity:1;stroke:none;stroke-width:1px;stroke-linecap:butt;stroke-linejoin:miter;stroke-opacity:1"
       x="665.37396"
       y="216.90541"
       id="text4157-5-3"
       inkscape:export-xdpi="119.98637"
       inkscape:export-ydpi="119.98637"
       transform="translate(4.9164147e-6)"><tspan
         sodipodi:role="line"
         id="tspan4159-2-1"
         x="665.37396"
         y="216.90541"
         style="font-size:10px;line-height:1.25;text-align:start;text-anchor:start;fill:#0000ff">seitenteile</tspan></text>
  </g>
  <g
     inkscape:groupmode="layer"
     id="layer2"
     inkscape:label="Engraving"
     style="display:inline"
     transform="translate(-337.18115,157.10308)">
    <path
       style="display:inline;fill:none;fill-opacity:1;stroke:#0000ff;stroke-width:0.327835;stroke-miterlimit:4;stroke-dasharray:none;stroke-opacity:1"
       inkscape:connector-curvature="0"
       id="path4"
       d="m 1143.2735,484.19346 c -0.354,-1.7684 -2.476,-2.8294 -4.2443,-2.4758 l -22.9887,6.0126 -12.3786,-7.0737 28.6477,-7.7807 c 1.7683,-0.354 3.1831,-2.4759 2.4756,-4.2442 -0.707,-1.7683 -2.4756,-3.1831 -4.2442,-2.4756 l -35.3674,9.5491 -10.9639,-6.3662 c 1.0612,-2.4756 1.4148,-4.9514 1.4148,-7.7808 0,-2.8293 -0.354,-5.3049 -1.4148,-7.7807 l 10.9639,-6.3662 35.3674,9.5493 c 1.7686,0.354 3.8906,-0.707 4.2442,-2.4759 0.354,-1.7683 -0.707,-3.8903 -2.4756,-4.2439 l -28.6477,-7.781 12.3786,-7.0734 22.9887,6.0124 c 1.7683,0.354 3.8905,-0.707 4.2443,-2.4756 0.354,-1.7685 -0.707,-3.8904 -2.476,-4.2441 l -16.2688,-4.2442 14.1467,-8.1345 c 1.7688,-1.061 2.1221,-3.1831 1.415,-4.9514 -1.0612,-1.7685 -3.183,-2.1221 -4.9514,-1.4148 l -14.147,8.1345 4.244,-16.269 c 0.354,-1.7683 -0.707,-3.8904 -2.4757,-4.2441 -1.7683,-0.354 -3.8904,0.707 -4.2443,2.4758 l -6.0123,22.989 -12.3786,7.0734 7.7809,-28.6476 c 0.354,-1.7686 -0.708,-3.8906 -2.4757,-4.2442 -1.7684,-0.354 -3.8905,0.707 -4.2443,2.4756 l -9.5491,35.3677 -10.964,6.366 c -3.5367,-4.244 -8.1344,-6.7198 -13.4396,-7.7808 v -12.7322 l 25.8183,-25.4648 c 1.4148,-1.4146 1.4148,-3.5366 0,-4.9514 -1.4147,-1.4146 -3.5367,-1.4146 -4.9514,0 l -20.8669,20.5132 v -14.147 l 16.9764,-16.9765 c 1.4148,-1.4146 1.4148,-3.5367 0,-4.9514 -1.4147,-1.4148 -3.5368,-1.4148 -4.9516,0 l -12.0248,12.0248 v -16.269 c 0,-2.122 -1.4146,-3.5366 -3.5367,-3.5366 -2.1221,0 -3.5369,1.4146 -3.5369,3.5366 v 16.269 l -11.6711,-11.6711 c -1.4147,-1.4148 -3.5368,-1.4148 -4.9513,0 -1.4151,1.4146 -1.4151,3.5366 0,4.9514 l 16.6224,16.9765 v 14.147 l -20.8667,-20.8669 c -1.4148,-1.4146 -3.5368,-1.4146 -4.9515,0 -1.4146,1.4148 -1.4146,3.5368 0,4.9514 l 25.8182,25.8183 v 12.7324 c -5.3051,0.707 -9.9027,3.5367 -13.4396,7.7808 l -10.9639,-6.3662 -9.5491,-35.3674 c -0.354,-1.7683 -2.4757,-3.1831 -4.2441,-2.4758 -1.7685,0.354 -3.1832,2.4758 -2.4758,4.2441 l 7.7807,28.6477 -12.3784,-7.0735 -6.0124,-22.989 c -0.354,-1.7683 -2.4759,-3.1829 -4.2443,-2.4756 -1.7685,0.354 -3.1829,2.4756 -2.4757,4.2442 l 4.2441,16.269 -14.14701,-8.1345 c -1.7683,-1.0611 -3.8902,-0.354 -4.9514,1.4146 -1.0609,1.7685 -0.354,3.8905 1.4147,4.9516 l 14.14681,8.1345 -16.26891,4.2441 c -1.7683,0.354 -3.1832,2.4756 -2.4757,4.2439 0.354,1.7686 2.4757,2.8296 4.2443,2.4759 l 22.98861,-6.0125 12.3788,7.0735 -28.6477,7.7808 c -2.1221,0 -3.18331,1.7683 -2.4759,3.8903 0.354,1.7686 2.4759,2.8296 4.2442,2.4759 l 35.3675,-9.5493 10.9639,6.3662 c -1.0612,2.4758 -1.4147,4.9514 -1.4147,7.7807 0,2.8294 0.354,5.3052 1.4147,7.7808 l -10.9639,6.3662 -35.3675,-9.5491 c -2.1221,-0.354 -3.8904,0.707 -4.2442,2.4756 -0.35401,1.7683 0.708,3.8904 2.4759,4.2442 l 28.6477,7.7807 -12.3788,7.0737 -22.98861,-6.0126 c -1.7686,-0.354 -3.8907,0.707 -4.2443,2.4758 -0.354,1.7683 0.707,3.8904 2.4757,4.2441 l 16.26891,4.2441 -14.14681,8.1345 c -1.7685,1.0611 -2.1221,3.1831 -1.4147,4.9515 1.0612,1.7683 3.1831,2.122 4.9514,1.4147 l 14.14701,-8.1345 -4.2441,16.2691 c -0.354,1.7683 0.707,3.8903 2.4757,4.2441 1.7684,0.353 3.8905,-0.708 4.2443,-2.4758 l 6.0124,-22.989 12.3784,-7.0735 -7.7807,28.6477 c -0.354,1.7685 0.707,3.8906 2.4758,4.2441 1.7684,0.354 3.8904,-0.707 4.2441,-2.4756 l 9.5491,-35.3676 10.9639,-6.3662 c 3.5369,4.2441 8.1345,6.7199 13.4396,7.781 v 12.7322 l -25.8182,25.4647 c -1.4146,1.4146 -1.4146,3.5367 0,4.9515 1.4147,1.41451 3.5367,1.41451 4.9515,0 l 20.8667,-20.8669 v 14.1469 l -16.6224,16.62281 c -1.4151,1.4146 -1.4151,3.5366 0,4.9514 1.4145,1.4148 3.5366,1.4148 4.9513,0 l 11.6711,-11.6711 v 16.6225 c 0,2.1221 1.4148,3.5369 3.5369,3.5369 2.1221,0 3.5367,-1.4148 3.5367,-3.5369 v -16.269 l 11.6712,11.6714 c 1.4148,1.4145 3.5369,1.4145 4.9515,0 1.4149,-1.4148 1.4149,-3.5369 0,-4.9515 l -16.6227,-16.97651 v -14.1469 l 20.8669,20.8669 c 1.4147,1.41451 3.5367,1.41451 4.9514,0 1.4148,-1.4148 1.4148,-3.5369 0,-4.9515 l -25.8183,-25.8183 v -12.7324 c 5.3052,-0.707 9.9029,-3.5368 13.4396,-7.7807 l 10.964,6.366 9.5491,35.3676 c 0.354,1.4148 1.7685,2.4758 3.5369,2.4758 2.4756,0 3.8904,-2.1221 3.5367,-4.5979 l -7.7808,-28.6477 12.3788,7.0735 6.0123,22.989 c 0.354,1.7683 2.4758,2.8293 4.2442,2.4756 1.7683,-0.353 3.1831,-2.4756 2.4755,-4.2439 l -4.2439,-16.2693 14.147,8.1345 c 1.7683,1.0611 3.8903,0.354 4.9515,-1.4145 1.0609,-1.7685 0.353,-3.8906 -1.415,-4.9516 l -14.1468,-8.1346 16.269,-4.2439 c 1.7683,0.354 2.8292,-1.7685 2.1221,-3.5368 z m -79.5769,-7.7808 c 0,0 0,0 0,0 0,0 0,0 0,0 -8.1344,0 -14.8546,-6.7199 -14.8546,-14.8545 0,-8.1345 6.7202,-14.8542 14.8546,-14.8542 0,0 0,0 0,0 0,0 0,0 0,0 8.1344,0 14.8542,6.7197 14.8542,14.8542 0,8.1346 -6.7198,14.8545 -14.8542,14.8545 z" />
    <path
       style="font-weight:bold;font-size:23.75px;line-height:1.4;font-family:'Source Sans Pro';-inkscape-font-specification:'Source Sans Pro Bold';letter-spacing:0.18291px;stroke-width:0.852621"
       d="m 990.15401,266.8126 -0.35625,-1.425 q -0.3325,-1.16375 -0.64125,-2.47 -0.30875,-1.30625 -0.6175,-2.5175 h -0.095 q -0.285,1.235 -0.59375,2.54125 -0.285,1.2825 -0.6175,2.44625 l -0.38,1.425 z m 0.7125,2.73125 h -4.72625 l -0.95,3.68125 h -3.5625 l 4.845,-15.485 h 4.20375 l 4.845,15.485 h -3.705 z m 5.62166,-2.20875 q 0,-1.44875 0.40375,-2.58875 0.4275,-1.14 1.0925,-1.92375 0.68875,-0.8075 1.5675,-1.235 0.90248,-0.4275 1.82878,-0.4275 0.9975,0 1.6387,0.3325 0.6413,0.3325 1.2588,0.9025 l -0.1425,-1.805 v -4.01375 h 3.4912 v 16.64875 h -2.85 l -0.2375,-1.16375 h -0.095 q -0.6175,0.6175 -1.4487,1.045 -0.8313,0.40375 -1.6863,0.40375 -1.0925,0 -1.99498,-0.4275 -0.87875,-0.4275 -1.52,-1.21125 -0.6175,-0.8075 -0.97375,-1.9475 -0.3325,-1.14 -0.3325,-2.58875 z m 3.58623,-0.0475 q 0,1.7575 0.5463,2.565 0.57,0.8075 1.5912,0.8075 0.57,0 1.0213,-0.2375 0.475,-0.2375 0.9025,-0.83125 v -4.82125 q -0.475,-0.4275 -0.9738,-0.59375 -0.4987,-0.16625 -0.9737,-0.16625 -0.8313,0 -1.4725,0.8075 -0.6413,0.78375 -0.6413,2.47 z m 9.5642,-5.8425 h 3.515 l 1.52,5.5575 q 0.2375,0.87875 0.4512,1.805 0.2375,0.9025 0.475,1.82875 h 0.095 q 0.2138,-0.92625 0.4275,-1.82875 0.2375,-0.92625 0.475,-1.805 l 1.5438,-5.5575 h 3.3487 l -3.8475,11.78 h -4.0375 z m 12.9842,5.89 q 0,-1.425 0.475,-2.565 0.475,-1.16375 1.235,-1.9475 0.7837,-0.8075 1.7812,-1.235 0.9975,-0.4275 2.0663,-0.4275 1.2587,0 2.185,0.4275 0.95,0.4275 1.5675,1.1875 0.6412,0.76 0.95,1.805 0.3087,1.02125 0.3087,2.2325 0,0.475 -0.047,0.87875 -0.047,0.38 -0.095,0.59375 h -7.0537 q 0.2375,1.35375 1.045,1.97125 0.8312,0.59375 2.0187,0.59375 1.2588,0 2.5413,-0.78375 l 1.1637,2.11375 q -0.9025,0.6175 -2.0187,0.97375 -1.0925,0.35625 -2.1613,0.35625 -1.2587,0 -2.3512,-0.40375 -1.0925,-0.4275 -1.9,-1.21125 -0.8075,-0.8075 -1.2588,-1.9475 -0.4512,-1.14 -0.4512,-2.6125 z m 7.6,-1.21125 q 0,-1.02125 -0.4513,-1.6625 -0.4512,-0.64125 -1.52,-0.64125 -0.8312,0 -1.4725,0.57 -0.6175,0.54625 -0.8075,1.73375 z m 5.5741,-4.67875 h 2.85 l 0.2375,1.49625 h 0.095 q 0.76,-0.7125 1.6625,-1.235 0.9025,-0.54625 2.1138,-0.54625 1.9237,0 2.7787,1.25875 0.8788,1.25875 0.8788,3.49125 v 7.315 h -3.4913 v -6.86375 q 0,-1.2825 -0.3562,-1.7575 -0.3325,-0.475 -1.0925,-0.475 -0.665,0 -1.14,0.30875 -0.475,0.285 -1.045,0.83125 v 7.95625 h -3.4913 z m 14.2429,2.73125 h -1.615 v -2.58875 l 1.805,-0.1425 0.4038,-3.135 h 2.8975 v 3.135 h 2.8262 v 2.73125 h -2.8262 v 4.72625 q 0,0.9975 0.4037,1.44875 0.4275,0.4275 1.1163,0.4275 0.285,0 0.57,-0.0712 0.3087,-0.0713 0.5462,-0.16625 l 0.5463,2.54125 q -0.475,0.1425 -1.1163,0.285 -0.6412,0.1425 -1.4962,0.1425 -1.0925,0 -1.8763,-0.3325 -0.76,-0.3325 -1.2587,-0.92625 -0.475,-0.59375 -0.7125,-1.425 -0.2138,-0.855 -0.2138,-1.87625 z m 9.0892,-6.43625 h 5.2962 q 1.2113,0 2.2325,0.19 1.045,0.16625 1.805,0.6175 0.7838,0.45125 1.2113,1.1875 0.4512,0.73625 0.4512,1.8525 0,0.5225 -0.1662,1.045 -0.1425,0.5225 -0.4513,0.97375 -0.3087,0.45125 -0.8075,0.8075 -0.4987,0.35625 -1.1637,0.5225 v 0.095 q 1.6625,0.30875 2.4937,1.1875 0.855,0.87875 0.855,2.44625 0,1.1875 -0.475,2.0425 -0.4512,0.855 -1.2825,1.425 -0.8075,0.54625 -1.9,0.83125 -1.0925,0.26125 -2.3512,0.26125 h -5.7475 z m 5.13,6.24625 q 1.2825,0 1.8525,-0.49875 0.5937,-0.5225 0.5937,-1.40125 0,-0.87875 -0.5937,-1.25875 -0.5938,-0.38 -1.8288,-0.38 h -1.6625 v 3.53875 z m 0.3325,6.53125 q 2.8737,0 2.8737,-2.11375 0,-1.02125 -0.7125,-1.4725 -0.7125,-0.475 -2.1612,-0.475 h -1.9713 v 4.06125 z m 8.1154,-3.1825 q 0,-1.4725 0.475,-2.6125 0.475,-1.16375 1.2587,-1.9475 0.8075,-0.78375 1.8525,-1.1875 1.045,-0.4275 2.1613,-0.4275 1.1162,0 2.1375,0.4275 1.045,0.40375 1.8287,1.1875 0.8075,0.78375 1.2825,1.9475 0.475,1.14 0.475,2.6125 0,1.4725 -0.475,2.63625 -0.475,1.14 -1.2825,1.92375 -0.7837,0.78375 -1.8287,1.21125 -1.0213,0.40375 -2.1375,0.40375 -1.1163,0 -2.1613,-0.40375 -1.045,-0.4275 -1.8525,-1.21125 -0.7837,-0.78375 -1.2587,-1.92375 -0.475,-1.16375 -0.475,-2.63625 z m 3.5862,0 q 0,1.54375 0.5225,2.44625 0.5463,0.9025 1.6388,0.9025 1.0687,0 1.615,-0.9025 0.5462,-0.9025 0.5462,-2.44625 0,-1.54375 -0.5462,-2.44625 -0.5463,-0.9025 -1.615,-0.9025 -1.0925,0 -1.6388,0.9025 -0.5225,0.9025 -0.5225,2.44625 z m 12.248,-0.2375 -3.3963,-5.6525 h 3.7525 l 1.045,1.9 q 0.2375,0.49875 0.475,1.02125 0.2613,0.49875 0.5225,0.9975 h 0.095 q 0.19,-0.49875 0.4038,-0.9975 0.2137,-0.5225 0.4037,-1.02125 l 0.8075,-1.9 h 3.61 l -3.42,6.05625 3.6338,5.72375 h -3.7525 l -1.14,-1.9475 q -0.285,-0.49875 -0.57,-1.02125 -0.2613,-0.5225 -0.5463,-1.02125 h -0.095 q -0.2137,0.49875 -0.4512,1.02125 -0.2375,0.49875 -0.4513,1.02125 l -0.9262,1.9475 h -3.61 z"
       id="text40"
       aria-label="AdventBox" />
    <path
       style="font-weight:600;font-size:15px;line-height:1.4;font-family:'Source Sans Pro';-inkscape-font-specification:'Source Sans Pro Semi-Bold';letter-spacing:0.115658px;stroke-width:0.539131"
       d="m 981.62776,282.48502 q 0,-1.2 0.345,-2.145 0.36,-0.96 0.975,-1.62 0.615,-0.66 1.44,-1.005 0.825,-0.345 1.77,-0.345 0.9,0 1.605,0.375 0.72,0.375 1.185,0.87 l -0.975,1.08 q -0.375,-0.375 -0.81,-0.585 -0.42,-0.225 -0.99,-0.225 -0.615,0 -1.125,0.255 -0.495,0.24 -0.87,0.705 -0.36,0.45 -0.57,1.11 -0.195,0.66 -0.195,1.485 0,1.68 0.72,2.64 0.735,0.945 1.98,0.945 0.66,0 1.14,-0.255 0.495,-0.255 0.915,-0.72 l 0.975,1.065 q -0.6,0.69 -1.365,1.065 -0.765,0.36 -1.695,0.36 -0.945,0 -1.755,-0.33 -0.81,-0.33 -1.41,-0.975 -0.6,-0.645 -0.945,-1.59 -0.345,-0.945 -0.345,-2.16 z m 8.63566,1.2 q 0,-0.915 0.285,-1.635 0.285,-0.72 0.765,-1.215 0.495,-0.495 1.125,-0.75 0.63,-0.27 1.32,-0.27 0.69,0 1.32,0.27 0.645,0.255 1.125,0.75 0.48,0.495 0.765,1.215 0.3,0.72 0.3,1.635 0,0.915 -0.3,1.635 -0.285,0.72 -0.765,1.215 -0.48,0.495 -1.125,0.75 -0.63,0.255 -1.32,0.255 -0.69,0 -1.32,-0.255 -0.63,-0.255 -1.125,-0.75 -0.48,-0.495 -0.765,-1.215 -0.285,-0.72 -0.285,-1.635 z m 1.77,0 q 0,1.11 0.45,1.785 0.465,0.66 1.275,0.66 0.81,0 1.275,-0.66 0.465,-0.675 0.465,-1.785 0,-1.125 -0.465,-1.785 -0.465,-0.675 -1.275,-0.675 -0.81,0 -1.275,0.675 -0.45,0.66 -0.45,1.785 z m 6.61066,0 q 0,-0.9 0.255,-1.62 0.27,-0.72 0.705,-1.215 0.43502,-0.495 0.99002,-0.765 0.57,-0.27 1.17,-0.27 0.63,0 1.065,0.225 0.435,0.21 0.87,0.585 l -0.06,-1.185 v -2.67 h 1.725 v 10.59 h -1.425 l -0.12,-0.795 h -0.06 q -0.405,0.405 -0.945,0.69 -0.54,0.285 -1.14,0.285 -1.395,0 -2.22002,-1.005 -0.81,-1.02 -0.81,-2.85 z m 1.78502,-0.015 q 0,1.2 0.42,1.83 0.435,0.615 1.245,0.615 0.825,0 1.545,-0.825 v -3.435 q -0.39,-0.345 -0.765,-0.48 -0.36,-0.135 -0.735,-0.135 -0.72,0 -1.215,0.63 -0.495,0.63 -0.495,1.8 z m 6.7606,0.015 q 0,-0.9 0.285,-1.62 0.285,-0.72 0.75,-1.215 0.48,-0.495 1.095,-0.765 0.615,-0.27 1.26,-0.27 0.75,0 1.32,0.255 0.57,0.255 0.945,0.72 0.39,0.465 0.585,1.11 0.195,0.645 0.195,1.41 0,0.51 -0.075,0.81 h -4.68 q 0.12,1.005 0.69,1.545 0.585,0.54 1.485,0.54 0.48,0 0.885,-0.135 0.42,-0.15 0.825,-0.405 l 0.585,1.08 q -0.525,0.345 -1.17,0.57 -0.645,0.225 -1.35,0.225 -0.765,0 -1.425,-0.255 -0.66,-0.27 -1.155,-0.765 -0.495,-0.495 -0.78,-1.2 -0.27,-0.72 -0.27,-1.635 z m 4.935,-0.66 q 0,-0.885 -0.375,-1.38 -0.36,-0.495 -1.125,-0.495 -0.66,0 -1.155,0.48 -0.495,0.465 -0.615,1.395 z m 3.2657,-3.03 h 1.425 l 0.12,1.305 h 0.06 q 0.39,-0.72 0.945,-1.095 0.555,-0.39 1.14,-0.39 0.525,0 0.84,0.15 l -0.3,1.5 q -0.195,-0.06 -0.36,-0.09 -0.165,-0.03 -0.405,-0.03 -0.435,0 -0.915,0.345 -0.48,0.33 -0.825,1.17 v 4.5 h -1.725 z m 5.8606,-2.445 h 2.625 q 2.25,0 3.51,1.215 1.26,1.215 1.26,3.645 0,1.215 -0.33,2.145 -0.315,0.93 -0.93,1.56 -0.6,0.615 -1.47,0.93 -0.855,0.315 -1.95,0.315 h -2.715 z m 2.505,8.4 q 1.5,0 2.295,-0.855 0.81,-0.87 0.81,-2.685 0,-1.8 -0.81,-2.625 -0.81,-0.825 -2.295,-0.825 h -0.765 v 6.99 z m 6.3557,-2.265 q 0,-0.915 0.285,-1.635 0.285,-0.72 0.765,-1.215 0.495,-0.495 1.125,-0.75 0.63,-0.27 1.32,-0.27 0.69,0 1.32,0.27 0.645,0.255 1.125,0.75 0.48,0.495 0.765,1.215 0.3,0.72 0.3,1.635 0,0.915 -0.3,1.635 -0.285,0.72 -0.765,1.215 -0.48,0.495 -1.125,0.75 -0.63,0.255 -1.32,0.255 -0.69,0 -1.32,-0.255 -0.63,-0.255 -1.125,-0.75 -0.48,-0.495 -0.765,-1.215 -0.285,-0.72 -0.285,-1.635 z m 1.77,0 q 0,1.11 0.45,1.785 0.465,0.66 1.275,0.66 0.81,0 1.275,-0.66 0.465,-0.675 0.465,-1.785 0,-1.125 -0.465,-1.785 -0.465,-0.675 -1.275,-0.675 -0.81,0 -1.275,0.675 -0.45,0.66 -0.45,1.785 z m 7.0756,-3.69 h 1.74 v 7.74 q 0,0.585 -0.12,1.08 -0.12,0.495 -0.405,0.855 -0.27,0.375 -0.72,0.57 -0.45,0.21 -1.095,0.21 -0.405,0 -0.69,-0.06 -0.3,-0.06 -0.51,-0.135 l 0.33,-1.29 q 0.15,0.045 0.315,0.075 0.15,0.045 0.315,0.045 0.495,0 0.66,-0.345 0.18,-0.33 0.18,-0.975 z m 0.87,-1.29 q -0.45,0 -0.765,-0.27 -0.3,-0.27 -0.3,-0.705 0,-0.435 0.3,-0.705 0.315,-0.285 0.765,-0.285 0.465,0 0.765,0.285 0.315,0.27 0.315,0.705 0,0.435 -0.315,0.705 -0.3,0.27 -0.765,0.27 z m 2.6957,4.98 q 0,-0.915 0.285,-1.635 0.285,-0.72 0.765,-1.215 0.495,-0.495 1.125,-0.75 0.63,-0.27 1.32,-0.27 0.69,0 1.32,0.27 0.645,0.255 1.125,0.75 0.48,0.495 0.765,1.215 0.3,0.72 0.3,1.635 0,0.915 -0.3,1.635 -0.285,0.72 -0.765,1.215 -0.48,0.495 -1.125,0.75 -0.63,0.255 -1.32,0.255 -0.69,0 -1.32,-0.255 -0.63,-0.255 -1.125,-0.75 -0.48,-0.495 -0.765,-1.215 -0.285,-0.72 -0.285,-1.635 z m 1.77,0 q 0,1.11 0.45,1.785 0.465,0.66 1.275,0.66 0.81,0 1.275,-0.66 0.465,-0.675 0.465,-1.785 0,-1.125 -0.465,-1.785 -0.465,-0.675 -1.275,-0.675 -0.81,0 -1.275,0.675 -0.45,0.66 -0.45,1.785 z m 10.4013,-6.135 h 3.3 q 0.81,0 1.485,0.15 0.69,0.15 1.185,0.51 0.495,0.36 0.78,0.945 0.285,0.57 0.285,1.425 0,0.81 -0.285,1.41 -0.285,0.6 -0.795,1.005 -0.495,0.39 -1.185,0.585 -0.675,0.18 -1.47,0.18 h -1.56 v 3.6 h -1.74 z m 3.165,4.815 q 2.16,0 2.16,-1.785 0,-0.93 -0.54,-1.275 -0.54,-0.36 -1.62,-0.36 h -1.425 v 3.42 z m 4.8707,1.32 q 0,-0.915 0.285,-1.635 0.285,-0.72 0.765,-1.215 0.495,-0.495 1.125,-0.75 0.63,-0.27 1.32,-0.27 0.69,0 1.32,0.27 0.645,0.255 1.125,0.75 0.48,0.495 0.765,1.215 0.3,0.72 0.3,1.635 0,0.915 -0.3,1.635 -0.285,0.72 -0.765,1.215 -0.48,0.495 -1.125,0.75 -0.63,0.255 -1.32,0.255 -0.69,0 -1.32,-0.255 -0.63,-0.255 -1.125,-0.75 -0.48,-0.495 -0.765,-1.215 -0.285,-0.72 -0.285,-1.635 z m 1.77,0 q 0,1.11 0.45,1.785 0.465,0.66 1.275,0.66 0.81,0 1.275,-0.66 0.465,-0.675 0.465,-1.785 0,-1.125 -0.465,-1.785 -0.465,-0.675 -1.275,-0.675 -0.81,0 -1.275,0.675 -0.45,0.66 -0.45,1.785 z m 7.3157,-2.325 h -1.05 v -1.29 l 1.14,-0.075 0.21,-2.01 h 1.44 v 2.01 h 1.875 v 1.365 h -1.875 v 3.51 q 0,1.29 1.035,1.29 0.195,0 0.39,-0.045 0.21,-0.045 0.375,-0.12 l 0.3,1.275 q -0.3,0.105 -0.69,0.18 -0.375,0.09 -0.81,0.09 -0.645,0 -1.095,-0.195 -0.435,-0.195 -0.72,-0.54 -0.27,-0.36 -0.405,-0.84 -0.12,-0.495 -0.12,-1.095 z m 5.3506,4.05 q 0.495,0.39 0.975,0.615 0.495,0.21 1.065,0.21 0.6,0 0.885,-0.24 0.285,-0.255 0.285,-0.645 0,-0.225 -0.135,-0.39 -0.135,-0.18 -0.36,-0.315 -0.225,-0.135 -0.51,-0.24 -0.285,-0.12 -0.57,-0.24 -0.36,-0.135 -0.735,-0.315 -0.375,-0.18 -0.675,-0.435 -0.285,-0.255 -0.48,-0.585 -0.18,-0.345 -0.18,-0.81 0,-0.975 0.72,-1.59 0.72,-0.615 1.965,-0.615 0.765,0 1.38,0.27 0.615,0.27 1.065,0.615 l -0.795,1.05 q -0.39,-0.285 -0.795,-0.45 -0.39,-0.18 -0.825,-0.18 -0.555,0 -0.825,0.24 -0.255,0.225 -0.255,0.57 0,0.225 0.12,0.39 0.135,0.15 0.345,0.27 0.21,0.12 0.48,0.225 0.285,0.105 0.585,0.21 0.375,0.135 0.75,0.315 0.375,0.165 0.675,0.42 0.315,0.255 0.495,0.63 0.195,0.36 0.195,0.87 0,0.48 -0.195,0.9 -0.18,0.405 -0.54,0.72 -0.36,0.3 -0.9,0.48 -0.54,0.18 -1.23,0.18 -0.765,0 -1.515,-0.285 -0.735,-0.3 -1.275,-0.735 z m 6.0557,-1.725 q 0,-0.9 0.255,-1.62 0.27,-0.72 0.705,-1.215 0.435,-0.495 0.99,-0.765 0.57,-0.27 1.17,-0.27 0.63,0 1.065,0.225 0.435,0.21 0.87,0.585 l -0.06,-1.185 v -2.67 h 1.725 v 10.59 h -1.425 l -0.12,-0.795 h -0.06 q -0.405,0.405 -0.945,0.69 -0.54,0.285 -1.14,0.285 -1.395,0 -2.22,-1.005 -0.81,-1.02 -0.81,-2.85 z m 1.785,-0.015 q 0,1.2 0.42,1.83 0.435,0.615 1.245,0.615 0.825,0 1.545,-0.825 v -3.435 q -0.39,-0.345 -0.765,-0.48 -0.36,-0.135 -0.735,-0.135 -0.72,0 -1.215,0.63 -0.495,0.63 -0.495,1.8 z m 6.9256,1.71 q 0,-1.185 1.035,-1.83 1.035,-0.645 3.3,-0.9 0,-0.285 -0.075,-0.54 -0.075,-0.27 -0.24,-0.465 -0.15,-0.21 -0.405,-0.315 -0.24,-0.12 -0.615,-0.12 -0.555,0 -1.08,0.21 -0.51,0.21 -0.99,0.51 l -0.63,-1.155 q 0.615,-0.39 1.365,-0.675 0.765,-0.285 1.65,-0.285 1.395,0 2.07,0.825 0.675,0.81 0.675,2.355 v 4.365 h -1.41 l -0.135,-0.81 h -0.045 q -0.495,0.42 -1.065,0.705 -0.555,0.285 -1.215,0.285 -0.975,0 -1.59,-0.585 -0.6,-0.6 -0.6,-1.575 z m 1.68,-0.135 q 0,0.495 0.285,0.72 0.3,0.225 0.765,0.225 0.45,0 0.825,-0.21 0.375,-0.21 0.78,-0.6 v -1.65 q -0.75,0.09 -1.26,0.24 -0.51,0.15 -0.825,0.345 -0.3,0.18 -0.435,0.42 -0.135,0.24 -0.135,0.51 z m 6.5957,-5.25 h 1.425 l 0.12,1.005 h 0.06 q 0.465,-0.495 1.005,-0.84 0.555,-0.345 1.245,-0.345 0.81,0 1.29,0.345 0.495,0.345 0.75,0.975 0.525,-0.57 1.095,-0.945 0.57,-0.375 1.275,-0.375 1.17,0 1.725,0.765 0.555,0.75 0.555,2.16 v 4.62 h -1.74 v -4.395 q 0,-0.915 -0.285,-1.29 -0.27,-0.375 -0.84,-0.375 -0.69,0 -1.545,0.915 v 5.145 h -1.725 v -4.395 q 0,-0.915 -0.285,-1.29 -0.27,-0.375 -0.855,-0.375 -0.69,0 -1.545,0.915 v 5.145 h -1.725 z m 15.4263,6.36 q 0.99,-0.96 1.785,-1.77 0.81,-0.81 1.365,-1.5 0.57,-0.69 0.87,-1.29 0.3,-0.6 0.3,-1.14 0,-0.765 -0.405,-1.2 -0.405,-0.45 -1.17,-0.45 -0.555,0 -1.02,0.315 -0.45,0.315 -0.84,0.75 l -0.96,-0.96 q 0.66,-0.705 1.35,-1.08 0.705,-0.39 1.695,-0.39 0.69,0 1.245,0.21 0.555,0.21 0.945,0.6 0.39,0.375 0.6,0.915 0.225,0.54 0.225,1.2 0,0.63 -0.285,1.29 -0.27,0.645 -0.75,1.32 -0.465,0.66 -1.095,1.365 -0.63,0.705 -1.335,1.455 0.375,-0.03 0.81,-0.06 0.435,-0.045 0.78,-0.045 h 2.34 v 1.47 h -6.45 z m 11.0807,1.185 q -1.5,0 -2.37,-1.275 -0.87,-1.29 -0.87,-3.72 0,-2.43 0.87,-3.66 0.87,-1.245 2.37,-1.245 1.5,0 2.37,1.245 0.87,1.245 0.87,3.66 0,2.43 -0.87,3.72 -0.87,1.275 -2.37,1.275 z m 0,-1.35 q 0.345,0 0.63,-0.18 0.3,-0.195 0.51,-0.63 0.21,-0.435 0.33,-1.125 0.12,-0.69 0.12,-1.71 0,-1.005 -0.12,-1.68 -0.12,-0.69 -0.33,-1.11 -0.21,-0.42 -0.51,-0.585 -0.285,-0.18 -0.63,-0.18 -0.345,0 -0.645,0.18 -0.285,0.165 -0.495,0.585 -0.21,0.42 -0.33,1.11 -0.12,0.675 -0.12,1.68 0,1.02 0.12,1.71 0.12,0.69 0.33,1.125 0.21,0.435 0.495,0.63 0.3,0.18 0.645,0.18 z m 4.5406,0.165 q 0.99,-0.96 1.785,-1.77 0.81,-0.81 1.365,-1.5 0.57,-0.69 0.87,-1.29 0.3,-0.6 0.3,-1.14 0,-0.765 -0.405,-1.2 -0.405,-0.45 -1.17,-0.45 -0.555,0 -1.02,0.315 -0.45,0.315 -0.84,0.75 l -0.96,-0.96 q 0.66,-0.705 1.35,-1.08 0.705,-0.39 1.695,-0.39 0.69,0 1.245,0.21 0.555,0.21 0.945,0.6 0.39,0.375 0.6,0.915 0.225,0.54 0.225,1.2 0,0.63 -0.285,1.29 -0.27,0.645 -0.75,1.32 -0.465,0.66 -1.095,1.365 -0.63,0.705 -1.335,1.455 0.375,-0.03 0.81,-0.06 0.435,-0.045 0.78,-0.045 h 2.34 v 1.47 h -6.45 z m 11.7257,-2.79 v -2.16 q 0,-0.42 0.015,-0.99 0.03,-0.57 0.06,-0.99 h -0.06 q -0.18,0.375 -0.375,0.735 -0.195,0.36 -0.405,0.75 l -1.74,2.655 z m 2.82,1.335 h -1.2 v 2.46 h -1.62 v -2.46 h -4.215 v -1.17 l 3.78,-5.91 h 2.055 v 5.745 h 1.2 z"
       id="text42"
       aria-label="CoderDojo Potsdam 2024" />
  </g>
  <g
     inkscape:label="Cutting"
     inkscape:groupmode="layer"
     id="layer1"
     style="display:inline"
     transform="translate(-337.18115,157.10308)">
    <circle
       style="opacity:1;fill:none;fill-opacity:1;stroke:#ff0000;stroke-width:0.292144;stroke-linecap:round;stroke-linejoin:round;stroke-miterlimit:10;stroke-dasharray:none;stroke-opacity:1"
       id="path4378"
       cx="153.74155"
       cy="437.23798"
       inkscape:export-xdpi="119.98637"
       inkscape:export-ydpi="119.98637"
       r="0" />
    <g
       id="g15"
       transform="translate(-380.93818,-345.00875)" />
    <g
       id="g19"
       transform="matrix(1,0,0,-1,-380.93818,1408.9866)" />
    <g
       id="g23"
       transform="rotate(90,513.79786,514.02419)" />
    <g
       id="g20"
       transform="translate(3.7499998,6.7745702)">
      <circle
         style="fill:none;stroke:#ff0000;stroke-width:0.265748;stroke-dasharray:none;stroke-opacity:1"
         id="path30"
         cx="454.78943"
         cy="36.927856"
         r="92.125984" />
      <path
         d="m 333.60833,-16.930424 v 36.8504 h 14.17319 v 34.01574 h -14.17319 v 36.85039 34.015744 36.8504 h 14.17319 v 35.4331 h 17.7166 36.85035 34.01575 36.85039 34.01575 36.85039 17.71654 v -35.4331 h 14.17323 v -36.8504 -34.015744 -36.85039 h -14.17323 v -34.01574 h 14.17323 v -36.8504 -34.01575 -36.85039 h -14.17323 v -35.433066 h -17.71654 -36.85039 -34.01575 -36.85039 -34.01575 -36.85035 -17.7166 v 35.433066 h -14.17319 v 36.85039 z"
         id="top_outsideCutPath"
         stroke="#FF0000"
         stroke-width="0.1"
         style="font-size:12px;fill:none;fill-rule:evenodd;stroke:#ff0000;stroke-width:0.354331;stroke-linecap:round"
         vector-effect="non-scaling-stroke"
         sodipodi:nodetypes="ccccccccccccccccccccccccccccccccccccccccc" />
    </g>
    <path
       d="m 351.53154,295.94161 v 34.01574 h -14.17322 v 36.8504 h 14.17322 v 34.01574 h -14.17322 v 36.8504 h 14.17322 v 34.01575 h -14.17322 v 36.85039 h 14.17322 v 35.43307 h 17.71653 v 14.17323 h 36.85039 V 543.9731 h 34.01575 v 14.17323 H 476.9646 V 543.9731 h 34.01575 v 14.17323 h 36.85039 V 543.9731 h 17.71654 v -35.43307 h 14.17323 v -36.85039 h -14.17323 v -34.01575 h 14.17324 v -36.8504 h -14.17323 v -34.01574 h 14.17323 v -36.8504 h -14.17323 v -34.01574 h 14.17323 v -36.85039 h -14.17323 v -35.43307 h -17.71654 v -14.17323 h -36.8504 v 14.17323 H 476.9646 v -14.17323 h -36.85039 v 14.17323 h -34.01575 v -14.17323 h -36.85039 v 14.17323 h -17.71653 v 35.43307 h -14.17322 v 36.85039 z"
       id="bottom_outsideCutPath"
       stroke="#FF0000"
       stroke-width="0.1"
       style="font-size:12px;fill:none;fill-rule:evenodd;stroke:#ff0000;stroke-width:0.354331;stroke-linecap:round"
       vector-effect="non-scaling-stroke" />
    <path
       d="m 885.42334,-142.75268 h -34.01575 v -14.17323 H 814.5572 v 14.17323 h -34.01575 v -14.17323 h -36.85039 v 14.17323 h -34.01575 v -14.17323 h -36.85039 v 14.17323 h -34.01575 v -14.17323 h -51.02362 v 61.65354 h 14.17323 v 34.01575 h -14.17323 v 36.85039 h 14.17323 V 9.60952 h -14.17323 v 36.85039 h 14.17323 v 34.01575 h -14.17323 v 36.85039 h 14.17323 v 34.01575 h -14.17323 v 61.65354 h 51.02362 v -14.17323 h 34.01575 36.85039 34.01575 v 14.17323 h 36.85039 v -14.17323 h 34.01575 36.85039 34.01575 v 14.17323 h 51.02362 V 151.3418 h -14.17323 v -34.01575 h 14.17323 V 80.47566 H 922.27373 V 46.45991 h 14.17323 V 9.60952 h -14.17323 v -34.01575 h 14.17323 v -36.85039 h -14.17323 v -34.01575 h 14.17323 v -61.65354 h -51.02362 z"
       id="path8"
       stroke="#FF0000"
       stroke-width="0.1"
       style="font-size:12px;fill:none;fill-rule:evenodd;stroke:#ff0000;stroke-width:0.354331;stroke-linecap:round"
       vector-effect="non-scaling-stroke"
       sodipodi:nodetypes="ccccccccccccccccccccccccccccccccccccccccccccccccccccccccccccccccc" />
    <g
       id="g17"
       transform="translate(-7.4999996)">
      <path
         d="m 1159.0887,-142.75267 h -34.0157 v -14.1732 h -36.8505 v 14.1732 h -34.0157 v -14.1732 h -36.8504 v 14.1732 h -34.0157 v -14.1732 h -19.1339 v 60.2362 h -14.1732 v 36.8504 h 14.1732 v 34.0157 h -14.1732 v 36.8504 h 14.1732 v 34.0158 h -14.1732 v 36.8504 h 14.1732 v 34.01571 h -14.1732 v 36.85038 h 14.1732 v 60.23622 h 19.1339 34.0157 36.8504 34.0157 36.8505 34.0157 19.1339 v -60.23622 h 14.1732 v -36.85038 h -14.1732 V 81.89302 h 14.1732 V 45.04263 h -14.1732 v -34.0158 h 14.1732 v -36.8504 h -14.1732 v -34.0157 h 14.1732 v -36.8504 h -14.1732 v -60.2362 h -19.1339 z"
         id="path10"
         stroke="#FF0000"
         stroke-width="0.1"
         style="font-size:12px;display:inline;fill:none;fill-rule:evenodd;stroke:#ff0000;stroke-width:0.354331;stroke-linecap:round;stroke-opacity:1"
         vector-effect="non-scaling-stroke"
         sodipodi:nodetypes="ccccccccccccccccccccccccccccccccccccccccccccccccccccccc" />
      <circle
         style="fill:none;stroke:#ff0000;stroke-width:0.265748"
         id="circle36"
         cx="-1071.2147"
         cy="35.567638"
         r="28.346455"
         transform="scale(-1)" />
    </g>
    <g
       id="g18"
       transform="translate(-7.4999996)">
      <circle
         style="fill:none;stroke:#ff0000;stroke-width:0.265748"
         id="circle11"
         cx="1071.2147"
         cy="461.55832"
         r="28.346455" />
      <path
         d="m 983.3407,568.74339 h 34.0157 v 14.1732 h 36.8505 v -14.1732 h 34.0157 v 14.1732 h 36.8504 v -14.1732 h 34.0157 v 14.1732 h 19.1339 v -60.23622 h 14.1732 v -36.85039 h -14.1732 v -34.01575 h 14.1732 v -36.85039 h -14.1732 v -34.01575 h 14.1732 V 344.0977 h -14.1732 V 310.08195 H 964.20684 v 34.01575 h -14.17323 v 36.85039 h 14.17323 v 34.01575 h -14.17323 v 36.85039 h 14.17323 v 34.01575 h -14.17323 v 36.85039 h 14.17323 v 60.23622 h 19.13386 z"
         id="path12"
         stroke="#FF0000"
         stroke-width="0.1"
         style="font-size:12px;fill:none;fill-rule:evenodd;stroke:#ff0000;stroke-width:0.354331;stroke-linecap:round;stroke-opacity:1"
         vector-effect="non-scaling-stroke"
         sodipodi:nodetypes="ccccccccccccccccccccccccccccccccccccccccc" />
      <path
         d="m 1178.2226,310.08195 h 14.1732 v -36.85039 h -14.1732 v -60.23622 h -19.1339 -34.0157 -36.8504 -34.0157 -36.8505 -34.0157 -19.13386 v 60.23622 h -14.17323 v 36.85039 h 14.17323 z"
         id="path13"
         stroke="#FF0000"
         stroke-width="0.1"
         style="font-size:12px;fill:none;fill-rule:evenodd;stroke:#ff0000;stroke-width:0.354331;stroke-linecap:round;stroke-opacity:1"
         vector-effect="non-scaling-stroke"
         sodipodi:nodetypes="ccccccccccccccccc" />
    </g>
    <g
       id="g16">
      <path
         id="rect8-9"
         style="display:inline;fill:none;stroke:#ff0000;stroke-width:0.354331;stroke-dasharray:none;stroke-opacity:1"
         inkscape:transform-center-x="-25.132909"
         inkscape:transform-center-y="156.14361"
         d="m 700.3,-268.23128 v -8.54919 h -38.10425 c -9.81496,0 -17.71728,-7.9005 -17.71728,-17.71546 v -7.26379 -38.10424 h -8.5492 v -34.01551 h 8.5492 v -55.6018 h -8.5492 v -34.0155 h 8.5492 v -38.10425 -7.26562 c 0,-9.81496 7.90232,-17.71546 17.71728,-17.71546 H 700.3 v -8.54919 h 34.0155 v 8.54919 h 55.6018 v -8.54919 h 34.01551 v 8.54919 h 38.10424 c 9.81496,0 17.71729,7.9005 17.71729,17.71546 v 45.36987 h 8.54919 v 34.0155 h -8.54919 v 55.6018 h 8.54919 v 34.01551 h -8.54919 v 45.36803 c 0,9.81496 -7.90233,17.71546 -17.71729,17.71546 h -38.10424 v 8.54919 H 789.9173 v -8.54919 h -55.6018 v 8.54919 z"
         transform="scale(1,-1)"
         sodipodi:nodetypes="ccssccccccccccssccccccccssccccccccssccccccc" />
      <path
         d="m 638.80916,568.74336 h 34.01575 v 14.17323 h 36.85039 v -14.17323 h 34.01575 v 14.17323 h 36.85039 v -14.17323 h 34.01575 v 14.17323 h 36.85039 v -14.17323 h 34.01575 v 14.17323 h 51.02362 V 521.26305 H 922.27372 V 487.2473 h 14.17323 v -36.85039 h -14.17323 v -34.01575 h 14.17323 v -36.85039 h -14.17323 v -34.01575 h 14.17323 v -36.85039 h -14.17323 v -34.01575 h 14.17323 v -61.65354 h -51.02362 v 14.17323 h -34.01575 -36.85039 -34.01575 v -14.17323 h -36.85039 v 14.17323 H 709.6753 672.82491 638.80916 v -14.17323 h -51.02362 v 61.65354 h 14.17323 v 34.01575 h -14.17323 v 36.85039 h 14.17323 v 34.01575 h -14.17323 v 36.85039 h 14.17323 v 34.01575 h -14.17323 v 36.85039 h 14.17323 v 34.01575 h -14.17323 v 61.65354 h 51.02362 z"
         id="path9"
         stroke="#FF0000"
         stroke-width="0.1"
         style="font-size:12px;fill:none;fill-rule:evenodd;stroke:#ff0000;stroke-width:0.354331;stroke-linecap:round"
         vector-effect="non-scaling-stroke"
         sodipodi:nodetypes="ccccccccccccccccccccccccccccccccccccccccccccccccccccccccccccccccc" />
      <circle
         style="display:inline;fill:none;stroke:#ff0000;stroke-width:0.265748"
         id="circle16"
         cx="-762.11627"
         cy="-332.99002"
         r="28.346455"
         transform="scale(-1)" />
    </g>
  </g>
</svg>
