<?xml version="1.0" encoding="UTF-8" standalone="no"?>
<!-- Created with Inkscape (http://www.inkscape.org/) -->

<svg
   width="239.29393mm"
   height="208.90001mm"
   viewBox="0 0 847.89183 740.19685"
   id="svg2"
   version="1.1"
   inkscape:version="1.4 (e7c3feb1, 2024-10-09)"
   sodipodi:docname="kasten_schnitt.01mm.svg"
   inkscape:export-filename="/Users/sven/Desktop/ChristmasMelody/case.png"
   inkscape:export-xdpi="70.008598"
   inkscape:export-ydpi="70.008598"
   xmlns:inkscape="http://www.inkscape.org/namespaces/inkscape"
   xmlns:sodipodi="http://sodipodi.sourceforge.net/DTD/sodipodi-0.dtd"
   xmlns="http://www.w3.org/2000/svg"
   xmlns:svg="http://www.w3.org/2000/svg"
   xmlns:rdf="http://www.w3.org/1999/02/22-rdf-syntax-ns#"
   xmlns:cc="http://creativecommons.org/ns#"
   xmlns:dc="http://purl.org/dc/elements/1.1/">
  <defs
     id="defs4" />
  <sodipodi:namedview
     id="base"
     pagecolor="#ffffff"
     bordercolor="#666666"
     borderopacity="1.0"
     inkscape:pageopacity="0.0"
     inkscape:pageshadow="2"
     inkscape:zoom="0.8055461"
     inkscape:cx="284.2792"
     inkscape:cy="543.73052"
     inkscape:document-units="mm"
     inkscape:current-layer="layer1"
     showgrid="false"
     inkscape:window-width="2560"
     inkscape:window-height="1387"
     inkscape:window-x="0"
     inkscape:window-y="25"
     inkscape:window-maximized="0"
     showguides="false"
     inkscape:guide-bbox="true"
     inkscape:showpageshadow="2"
     inkscape:pagecheckerboard="0"
     inkscape:deskcolor="#d1d1d1">
    <inkscape:grid
       type="xygrid"
       id="grid4170"
       originx="-337.18115"
       originy="465.37076"
       spacingy="1"
       spacingx="1"
       units="mm"
       visible="false" />
  </sodipodi:namedview>
  <metadata
     id="metadata7">
    <rdf:RDF>
      <cc:Work
         rdf:about="">
        <dc:format>image/svg+xml</dc:format>
        <dc:type
           rdf:resource="http://purl.org/dc/dcmitype/StillImage" />
      </cc:Work>
    </rdf:RDF>
  </metadata>
  <g
     inkscape:groupmode="layer"
     id="layer3"
     inkscape:label="Labels"
     style="display:none"
     transform="translate(-337.18115,157.10308)">
    <text
       xml:space="preserve"
       style="font-style:normal;font-weight:normal;line-height:0%;font-family:sans-serif;text-align:start;letter-spacing:0px;word-spacing:0px;text-anchor:start;fill:#000000;fill-opacity:1;stroke:none;stroke-width:1px;stroke-linecap:butt;stroke-linejoin:miter;stroke-opacity:1"
       x="84.922897"
       y="347.92471"
       id="text4157"
       inkscape:export-xdpi="119.98637"
       inkscape:export-ydpi="119.98637"
       transform="rotate(-90)"><tspan
         sodipodi:role="line"
         id="tspan4159"
         x="84.922897"
         y="347.92471"
         style="font-size:10px;line-height:1.25;text-align:start;text-anchor:start;fill:#0000ff">deckel</tspan></text>
    <text
       xml:space="preserve"
       style="font-style:normal;font-weight:normal;line-height:0%;font-family:sans-serif;text-align:start;letter-spacing:0px;word-spacing:0px;text-anchor:start;fill:#000000;fill-opacity:1;stroke:none;stroke-width:1px;stroke-linecap:butt;stroke-linejoin:miter;stroke-opacity:1"
       x="-249.99467"
       y="347.92471"
       id="text4157-5"
       inkscape:export-xdpi="119.98637"
       inkscape:export-ydpi="119.98637"
       transform="rotate(-90)"><tspan
         sodipodi:role="line"
         id="tspan4159-2"
         x="-249.99467"
         y="347.92471"
         style="font-size:10px;line-height:1.25;text-align:start;text-anchor:start;fill:#0000ff">boden</tspan></text>
    <text
       id="text6130"
       y="954.42206"
       x="-230.75519"
       style="font-style:normal;font-weight:normal;line-height:0%;font-family:sans-serif;text-align:start;letter-spacing:0px;word-spacing:0px;text-anchor:start;fill:#000000;fill-opacity:1;stroke:none;stroke-width:1px;stroke-linecap:butt;stroke-linejoin:miter;stroke-opacity:1"
       xml:space="preserve"
       inkscape:export-xdpi="119.98637"
       inkscape:export-ydpi="119.98637"
       transform="rotate(-90)"><tspan
         style="font-size:10px;line-height:1.25;text-align:start;text-anchor:start;fill:#0000ff"
         y="954.42206"
         x="-230.75519"
         id="tspan6132"
         sodipodi:role="line">fronten</tspan></text>
    <text
       xml:space="preserve"
       style="font-style:normal;font-weight:normal;line-height:0%;font-family:sans-serif;text-align:start;letter-spacing:0px;word-spacing:0px;text-anchor:start;display:inline;fill:#000000;fill-opacity:1;stroke:none;stroke-width:1px;stroke-linecap:butt;stroke-linejoin:miter;stroke-opacity:1"
       x="1054.662"
       y="-31.844494"
       id="text6134"
       inkscape:export-xdpi="119.98637"
       inkscape:export-ydpi="119.98637"><tspan
         sodipodi:role="line"
         id="tspan6136"
         x="1054.662"
         y="-31.844494"
         style="font-size:10px;line-height:1.25;text-align:start;text-anchor:start;fill:#0000ff">usb</tspan></text>
    <text
       xml:space="preserve"
       style="font-style:normal;font-weight:normal;line-height:0%;font-family:sans-serif;text-align:start;letter-spacing:0px;word-spacing:0px;text-anchor:start;display:inline;fill:#000000;fill-opacity:1;stroke:none;stroke-width:1px;stroke-linecap:butt;stroke-linejoin:miter;stroke-opacity:1"
       x="1048.8832"
       y="464.99338"
       id="text4157-5-1"
       inkscape:export-xdpi="119.98637"
       inkscape:export-ydpi="119.98637"><tspan
         sodipodi:role="line"
         id="tspan4159-2-7"
         x="1048.8832"
         y="464.99338"
         style="font-size:10px;line-height:1.25;text-align:start;text-anchor:start;fill:#0000ff">taster</tspan></text>
    <text
       xml:space="preserve"
       style="font-style:normal;font-weight:normal;line-height:0%;font-family:sans-serif;text-align:start;letter-spacing:0px;word-spacing:0px;text-anchor:start;display:inline;fill:#000000;fill-opacity:1;stroke:none;stroke-width:1px;stroke-linecap:butt;stroke-linejoin:miter;stroke-opacity:1"
       x="744.88239"
       y="329.39383"
       id="text21"
       inkscape:export-xdpi="119.98637"
       inkscape:export-ydpi="119.98637"><tspan
         sodipodi:role="line"
         id="tspan21"
         x="744.88239"
         y="329.39383"
         style="font-size:10px;line-height:1.25;text-align:start;text-anchor:start;fill:#0000ff">seiten-</tspan><tspan
         sodipodi:role="line"
         x="744.88239"
         y="341.89383"
         style="font-size:10px;line-height:1.25;text-align:start;text-anchor:start;fill:#0000ff"
         id="tspan22">klappe</tspan></text>
    <text
       xml:space="preserve"
       style="display:inline;font-style:normal;font-weight:normal;line-height:0%;font-family:sans-serif;text-align:start;letter-spacing:0px;word-spacing:0px;text-anchor:start;fill:#000000;fill-opacity:1;stroke:none;stroke-width:1px;stroke-linecap:butt;stroke-linejoin:miter;stroke-opacity:1"
       x="665.37396"
       y="216.90541"
       id="text4157-5-3"
       inkscape:export-xdpi="119.98637"
       inkscape:export-ydpi="119.98637"
       transform="translate(4.9164147e-6)"><tspan
         sodipodi:role="line"
         id="tspan4159-2-1"
         x="665.37396"
         y="216.90541"
         style="font-size:10px;line-height:1.25;text-align:start;text-anchor:start;fill:#0000ff">seitenteile</tspan></text>
  </g>
  <g
     inkscape:groupmode="layer"
     id="layer2"
     inkscape:label="Engraving"
     style="display:inline"
     transform="translate(-337.18115,157.10308)">
    <path
       style="display:inline;fill:none;fill-opacity:1;stroke:#0000ff;stroke-width:0.327835;stroke-miterlimit:4;stroke-dasharray:none;stroke-opacity:1"
       inkscape:connector-curvature="0"
       id="path4"
       d="m 1143.2735,484.19346 c -0.354,-1.7684 -2.476,-2.8294 -4.2443,-2.4758 l -22.9887,6.0126 -12.3786,-7.0737 28.6477,-7.7807 c 1.7683,-0.354 3.1831,-2.4759 2.4756,-4.2442 -0.707,-1.7683 -2.4756,-3.1831 -4.2442,-2.4756 l -35.3674,9.5491 -10.9639,-6.3662 c 1.0612,-2.4756 1.4148,-4.9514 1.4148,-7.7808 0,-2.8293 -0.354,-5.3049 -1.4148,-7.7807 l 10.9639,-6.3662 35.3674,9.5493 c 1.7686,0.354 3.8906,-0.707 4.2442,-2.4759 0.354,-1.7683 -0.707,-3.8903 -2.4756,-4.2439 l -28.6477,-7.781 12.3786,-7.0734 22.9887,6.0124 c 1.7683,0.354 3.8905,-0.707 4.2443,-2.4756 0.354,-1.7685 -0.707,-3.8904 -2.476,-4.2441 l -16.2688,-4.2442 14.1467,-8.1345 c 1.7688,-1.061 2.1221,-3.1831 1.415,-4.9514 -1.0612,-1.7685 -3.183,-2.1221 -4.9514,-1.4148 l -14.147,8.1345 4.244,-16.269 c 0.354,-1.7683 -0.707,-3.8904 -2.4757,-4.2441 -1.7683,-0.354 -3.8904,0.707 -4.2443,2.4758 l -6.0123,22.989 -12.3786,7.0734 7.7809,-28.6476 c 0.354,-1.7686 -0.708,-3.8906 -2.4757,-4.2442 -1.7684,-0.354 -3.8905,0.707 -4.2443,2.4756 l -9.5491,35.3677 -10.964,6.366 c -3.5367,-4.244 -8.1344,-6.7198 -13.4396,-7.7808 v -12.7322 l 25.8183,-25.4648 c 1.4148,-1.4146 1.4148,-3.5366 0,-4.9514 -1.4147,-1.4146 -3.5367,-1.4146 -4.9514,0 l -20.8669,20.5132 v -14.147 l 16.9764,-16.9765 c 1.4148,-1.4146 1.4148,-3.5367 0,-4.9514 -1.4147,-1.4148 -3.5368,-1.4148 -4.9516,0 l -12.0248,12.0248 v -16.269 c 0,-2.122 -1.4146,-3.5366 -3.5367,-3.5366 -2.1221,0 -3.5369,1.4146 -3.5369,3.5366 v 16.269 l -11.6711,-11.6711 c -1.4147,-1.4148 -3.5368,-1.4148 -4.9513,0 -1.4151,1.4146 -1.4151,3.5366 0,4.9514 l 16.6224,16.9765 v 14.147 l -20.8667,-20.8669 c -1.4148,-1.4146 -3.5368,-1.4146 -4.9515,0 -1.4146,1.4148 -1.4146,3.5368 0,4.9514 l 25.8182,25.8183 v 12.7324 c -5.3051,0.707 -9.9027,3.5367 -13.4396,7.7808 l -10.9639,-6.3662 -9.5491,-35.3674 c -0.354,-1.7683 -2.4757,-3.1831 -4.2441,-2.4758 -1.7685,0.354 -3.1832,2.4758 -2.4758,4.2441 l 7.7807,28.6477 -12.3784,-7.0735 -6.0124,-22.989 c -0.354,-1.7683 -2.4759,-3.1829 -4.2443,-2.4756 -1.7685,0.354 -3.1829,2.4756 -2.4757,4.2442 l 4.2441,16.269 -14.14701,-8.1345 c -1.7683,-1.0611 -3.8902,-0.354 -4.9514,1.4146 -1.0609,1.7685 -0.354,3.8905 1.4147,4.9516 l 14.14681,8.1345 -16.26891,4.2441 c -1.7683,0.354 -3.1832,2.4756 -2.4757,4.2439 0.354,1.7686 2.4757,2.8296 4.2443,2.4759 l 22.98861,-6.0125 12.3788,7.0735 -28.6477,7.7808 c -2.1221,0 -3.18331,1.7683 -2.4759,3.8903 0.354,1.7686 2.4759,2.8296 4.2442,2.4759 l 35.3675,-9.5493 10.9639,6.3662 c -1.0612,2.4758 -1.4147,4.9514 -1.4147,7.7807 0,2.8294 0.354,5.3052 1.4147,7.7808 l -10.9639,6.3662 -35.3675,-9.5491 c -2.1221,-0.354 -3.8904,0.707 -4.2442,2.4756 -0.35401,1.7683 0.708,3.8904 2.4759,4.2442 l 28.6477,7.7807 -12.3788,7.0737 -22.98861,-6.0126 c -1.7686,-0.354 -3.8907,0.707 -4.2443,2.4758 -0.354,1.7683 0.707,3.8904 2.4757,4.2441 l 16.26891,4.2441 -14.14681,8.1345 c -1.7685,1.0611 -2.1221,3.1831 -1.4147,4.9515 1.0612,1.7683 3.1831,2.122 4.9514,1.4147 l 14.14701,-8.1345 -4.2441,16.2691 c -0.354,1.7683 0.707,3.8903 2.4757,4.2441 1.7684,0.353 3.8905,-0.708 4.2443,-2.4758 l 6.0124,-22.989 12.3784,-7.0735 -7.7807,28.6477 c -0.354,1.7685 0.707,3.8906 2.4758,4.2441 1.7684,0.354 3.8904,-0.707 4.2441,-2.4756 l 9.5491,-35.3676 10.9639,-6.3662 c 3.5369,4.2441 8.1345,6.7199 13.4396,7.781 v 12.7322 l -25.8182,25.4647 c -1.4146,1.4146 -1.4146,3.5367 0,4.9515 1.4147,1.41451 3.5367,1.41451 4.9515,0 l 20.8667,-20.8669 v 14.1469 l -16.6224,16.62281 c -1.4151,1.4146 -1.4151,3.5366 0,4.9514 1.4145,1.4148 3.5366,1.4148 4.9513,0 l 11.6711,-11.6711 v 16.6225 c 0,2.1221 1.4148,3.5369 3.5369,3.5369 2.1221,0 3.5367,-1.4148 3.5367,-3.5369 v -16.269 l 11.6712,11.6714 c 1.4148,1.4145 3.5369,1.4145 4.9515,0 1.4149,-1.4148 1.4149,-3.5369 0,-4.9515 l -16.6227,-16.97651 v -14.1469 l 20.8669,20.8669 c 1.4147,1.41451 3.5367,1.41451 4.9514,0 1.4148,-1.4148 1.4148,-3.5369 0,-4.9515 l -25.8183,-25.8183 v -12.7324 c 5.3052,-0.707 9.9029,-3.5368 13.4396,-7.7807 l 10.964,6.366 9.5491,35.3676 c 0.354,1.4148 1.7685,2.4758 3.5369,2.4758 2.4756,0 3.8904,-2.1221 3.5367,-4.5979 l -7.7808,-28.6477 12.3788,7.0735 6.0123,22.989 c 0.354,1.7683 2.4758,2.8293 4.2442,2.4756 1.7683,-0.353 3.1831,-2.4756 2.4755,-4.2439 l -4.2439,-16.2693 14.147,8.1345 c 1.7683,1.0611 3.8903,0.354 4.9515,-1.4145 1.0609,-1.7685 0.353,-3.8906 -1.415,-4.9516 l -14.1468,-8.1346 16.269,-4.2439 c 1.7683,0.354 2.8292,-1.7685 2.1221,-3.5368 z m -79.5769,-7.7808 c 0,0 0,0 0,0 0,0 0,0 0,0 -8.1344,0 -14.8546,-6.7199 -14.8546,-14.8545 0,-8.1345 6.7202,-14.8542 14.8546,-14.8542 0,0 0,0 0,0 0,0 0,0 0,0 8.1344,0 14.8542,6.7197 14.8542,14.8542 0,8.1346 -6.7198,14.8545 -14.8542,14.8545 z" />
    <path
       style="font-weight:bold;font-size:23.75px;line-height:1.4;font-family:'Source Sans Pro';-inkscape-font-specification:'Source Sans Pro Bold';letter-spacing:0.18291px;stroke-width:0.852621"
       d="m 990.15401,266.8126 -0.35625,-1.425 q -0.3325,-1.16375 -0.64125,-2.47 -0.30875,-1.30625 -0.6175,-2.5175 h -0.095 q -0.285,1.235 -0.59375,2.54125 -0.285,1.2825 -0.6175,2.44625 l -0.38,1.425 z m 0.7125,2.73125 h -4.72625 l -0.95,3.68125 h -3.5625 l 4.845,-15.485 h 4.20375 l 4.845,15.485 h -3.705 z m 5.62166,-2.20875 q 0,-1.44875 0.40375,-2.58875 0.4275,-1.14 1.0925,-1.92375 0.68875,-0.8075 1.5675,-1.235 0.90248,-0.4275 1.82878,-0.4275 0.9975,0 1.6387,0.3325 0.6413,0.3325 1.2588,0.9025 l -0.1425,-1.805 v -4.01375 h 3.4912 v 16.64875 h -2.85 l -0.2375,-1.16375 h -0.095 q -0.6175,0.6175 -1.4487,1.045 -0.8313,0.40375 -1.6863,0.40375 -1.0925,0 -1.99498,-0.4275 -0.87875,-0.4275 -1.52,-1.21125 -0.6175,-0.8075 -0.97375,-1.9475 -0.3325,-1.14 -0.3325,-2.58875 z m 3.58623,-0.0475 q 0,1.7575 0.5463,2.565 0.57,0.8075 1.5912,0.8075 0.57,0 1.0213,-0.2375 0.475,-0.2375 0.9025,-0.83125 v -4.82125 q -0.475,-0.4275 -0.9738,-0.59375 -0.4987,-0.16625 -0.9737,-0.16625 -0.8313,0 -1.4725,0.8075 -0.6413,0.78375 -0.6413,2.47 z m 9.5642,-5.8425 h 3.515 l 1.52,5.5575 q 0.2375,0.87875 0.4512,1.805 0.2375,0.9025 0.475,1.82875 h 0.095 q 0.2138,-0.92625 0.4275,-1.82875 0.2375,-0.92625 0.475,-1.805 l 1.5438,-5.5575 h 3.3487 l -3.8475,11.78 h -4.0375 z m 12.9842,5.89 q 0,-1.425 0.475,-2.565 0.475,-1.16375 1.235,-1.9475 0.7837,-0.8075 1.7812,-1.235 0.9975,-0.4275 2.0663,-0.4275 1.2587,0 2.185,0.4275 0.95,0.4275 1.5675,1.1875 0.6412,0.76 0.95,1.805 0.3087,1.02125 0.3087,2.2325 0,0.475 -0.047,0.87875 -0.047,0.38 -0.095,0.59375 h -7.0537 q 0.2375,1.35375 1.045,1.97125 0.8312,0.59375 2.0187,0.59375 1.2588,0 2.5413,-0.78375 l 1.1637,2.11375 q -0.9025,0.6175 -2.0187,0.97375 -1.0925,0.35625 -2.1613,0.35625 -1.2587,0 -2.3512,-0.40375 -1.0925,-0.4275 -1.9,-1.21125 -0.8075,-0.8075 -1.2588,-1.9475 -0.4512,-1.14 -0.4512,-2.6125 z m 7.6,-1.21125 q 0,-1.02125 -0.4513,-1.6625 -0.4512,-0.64125 -1.52,-0.64125 -0.8312,0 -1.4725,0.57 -0.6175,0.54625 -0.8075,1.73375 z m 5.5741,-4.67875 h 2.85 l 0.2375,1.49625 h 0.095 q 0.76,-0.7125 1.6625,-1.235 0.9025,-0.54625 2.1138,-0.54625 1.9237,0 2.7787,1.25875 0.8788,1.25875 0.8788,3.49125 v 7.315 h -3.4913 v -6.86375 q 0,-1.2825 -0.3562,-1.7575 -0.3325,-0.475 -1.0925,-0.475 -0.665,0 -1.14,0.30875 -0.475,0.285 -1.045,0.83125 v 7.95625 h -3.4913 z m 14.2429,2.73125 h -1.615 v -2.58875 l 1.805,-0.1425 0.4038,-3.135 h 2.8975 v 3.135 h 2.8262 v 2.73125 h -2.8262 v 4.72625 q 0,0.9975 0.4037,1.44875 0.4275,0.4275 1.1163,0.4275 0.285,0 0.57,-0.0712 0.3087,-0.0713 0.5462,-0.16625 l 0.5463,2.54125 q -0.475,0.1425 -1.1163,0.285 -0.6412,0.1425 -1.4962,0.1425 -1.0925,0 -1.8763,-0.3325 -0.76,-0.3325 -1.2587,-0.92625 -0.475,-0.59375 -0.7125,-1.425 -0.2138,-0.855 -0.2138,-1.87625 z m 9.0892,-6.43625 h 5.2962 q 1.2113,0 2.2325,0.19 1.045,0.16625 1.805,0.6175 0.7838,0.45125 1.2113,1.1875 0.4512,0.73625 0.4512,1.8525 0,0.5225 -0.1662,1.045 -0.1425,0.5225 -0.4513,0.97375 -0.3087,0.45125 -0.8075,0.8075 -0.4987,0.35625 -1.1637,0.5225 v 0.095 q 1.6625,0.30875 2.4937,1.1875 0.855,0.87875 0.855,2.44625 0,1.1875 -0.475,2.0425 -0.4512,0.855 -1.2825,1.425 -0.8075,0.54625 -1.9,0.83125 -1.0925,0.26125 -2.3512,0.26125 h -5.7475 z m 5.13,6.24625 q 1.2825,0 1.8525,-0.49875 0.5937,-0.5225 0.5937,-1.40125 0,-0.87875 -0.5937,-1.25875 -0.5938,-0.38 -1.8288,-0.38 h -1.6625 v 3.53875 z m 0.3325,6.53125 q 2.8737,0 2.8737,-2.11375 0,-1.02125 -0.7125,-1.4725 -0.7125,-0.475 -2.1612,-0.475 h -1.9713 v 4.06125 z m 8.1154,-3.1825 q 0,-1.4725 0.475,-2.6125 0.475,-1.16375 1.2587,-1.9475 0.8075,-0.78375 1.8525,-1.1875 1.045,-0.4275 2.1613,-0.4275 1.1162,0 2.1375,0.4275 1.045,0.40375 1.8287,1.1875 0.8075,0.78375 1.2825,1.9475 0.475,1.14 0.475,2.6125 0,1.4725 -0.475,2.63625 -0.475,1.14 -1.2825,1.92375 -0.7837,0.78375 -1.8287,1.21125 -1.0213,0.40375 -2.1375,0.40375 -1.1163,0 -2.1613,-0.40375 -1.045,-0.4275 -1.8525,-1.21125 -0.7837,-0.78375 -1.2587,-1.92375 -0.475,-1.16375 -0.475,-2.63625 z m 3.5862,0 q 0,1.54375 0.5225,2.44625 0.5463,0.9025 1.6388,0.9025 1.0687,0 1.615,-0.9025 0.5462,-0.9025 0.5462,-2.44625 0,-1.54375 -0.5462,-2.44625 -0.5463,-0.9025 -1.615,-0.9025 -1.0925,0 -1.6388,0.9025 -0.5225,0.9025 -0.5225,2.44625 z m 12.248,-0.2375 -3.3963,-5.6525 h 3.7525 l 1.045,1.9 q 0.2375,0.49875 0.475,1.02125 0.2613,0.49875 0.5225,0.9975 h 0.095 q 0.19,-0.49875 0.4038,-0.9975 0.2137,-0.5225 0.4037,-1.02125 l 0.8075,-1.9 h 3.61 l -3.42,6.05625 3.6338,5.72375 h -3.7525 l -1.14,-1.9475 q -0.285,-0.49875 -0.57,-1.02125 -0.2613,-0.5225 -0.5463,-1.02125 h -0.095 q -0.2137,0.49875 -0.4512,1.02125 -0.2375,0.49875 -0.4513,1.02125 l -0.9262,1.9475 h -3.61 z"
       id="text40"
       aria-label="AdventBox" />
    <path
       style="font-weight:600;font-size:15px;line-height:1.4;font-family:'Source Sans Pro';-inkscape-font-specification:'Source Sans Pro Semi-Bold';letter-spacing:0.115658px;stroke-width:0.539131"
       d="m 981.62776,282.48502 q 0,-1.2 0.345,-2.145 0.36,-0.96 0.975,-1.62 0.615,-0.66 1.44,-1.005 0.825,-0.345 1.77,-0.345 0.9,0 1.605,0.375 0.72,0.375 1.185,0.87 l -0.975,1.08 q -0.375,-0.375 -0.81,-0.585 -0.42,-0.225 -0.99,-0.225 -0.615,0 -1.125,0.255 -0.495,0.24 -0.87,0.705 -0.36,0.45 -0.57,1.11 -0.195,0.66 -0.195,1.485 0,1.68 0.72,2.64 0.735,0.945 1.98,0.945 0.66,0 1.14,-0.255 0.495,-0.255 0.915,-0.72 l 0.975,1.065 q -0.6,0.69 -1.365,1.065 -0.765,0.36 -1.695,0.36 -0.945,0 -1.755,-0.33 -0.81,-0.33 -1.41,-0.975 -0.6,-0.645 -0.945,-1.59 -0.345,-0.945 -0.345,-2.16 z m 8.63566,1.2 q 0,-0.915 0.285,-1.635 0.285,-0.72 0.765,-1.215 0.495,-0.495 1.125,-0.75 0.63,-0.27 1.32,-0.27 0.69,0 1.32,0.27 0.645,0.255 1.125,0.75 0.48,0.495 0.765,1.215 0.3,0.72 0.3,1.635 0,0.915 -0.3,1.635 -0.285,0.72 -0.765,1.215 -0.48,0.495 -1.125,0.75 -0.63,0.255 -1.32,0.255 -0.69,0 -1.32,-0.255 -0.63,-0.255 -1.125,-0.75 -0.48,-0.495 -0.765,-1.215 -0.285,-0.72 -0.285,-1.635 z m 1.77,0 q 0,1.11 0.45,1.785 0.465,0.66 1.275,0.66 0.81,0 1.275,-0.66 0.465,-0.675 0.465,-1.785 0,-1.125 -0.465,-1.785 -0.465,-0.675 -1.275,-0.675 -0.81,0 -1.275,0.675 -0.45,0.66 -0.45,1.785 z m 6.61066,0 q 0,-0.9 0.255,-1.62 0.27,-0.72 0.705,-1.215 0.43502,-0.495 0.99002,-0.765 0.57,-0.27 1.17,-0.27 0.63,0 1.065,0.225 0.435,0.21 0.87,0.585 l -0.06,-1.185 v -2.67 h 1.725 v 10.59 h -1.425 l -0.12,-0.795 h -0.06 q -0.405,0.405 -0.945,0.69 -0.54,0.285 -1.14,0.285 -1.395,0 -2.22002,-1.005 -0.81,-1.02 -0.81,-2.85 z m 1.78502,-0.015 q 0,1.2 0.42,1.83 0.435,0.615 1.245,0.615 0.825,0 1.545,-0.825 v -3.435 q -0.39,-0.345 -0.765,-0.48 -0.36,-0.135 -0.735,-0.135 -0.72,0 -1.215,0.63 -0.495,0.63 -0.495,1.8 z m 6.7606,0.015 q 0,-0.9 0.285,-1.62 0.285,-0.72 0.75,-1.215 0.48,-0.495 1.095,-0.765 0.615,-0.27 1.26,-0.27 0.75,0 1.32,0.255 0.57,0.255 0.945,0.72 0.39,0.465 0.585,1.11 0.195,0.645 0.195,1.41 0,0.51 -0.075,0.81 h -4.68 q 0.12,1.005 0.69,1.545 0.585,0.54 1.485,0.54 0.48,0 0.885,-0.135 0.42,-0.15 0.825,-0.405 l 0.585,1.08 q -0.525,0.345 -1.17,0.57 -0.645,0.225 -1.35,0.225 -0.765,0 -1.425,-0.255 -0.66,-0.27 -1.155,-0.765 -0.495,-0.495 -0.78,-1.2 -0.27,-0.72 -0.27,-1.635 z m 4.935,-0.66 q 0,-0.885 -0.375,-1.38 -0.36,-0.495 -1.125,-0.495 -0.66,0 -1.155,0.48 -0.495,0.465 -0.615,1.395 z m 3.2657,-3.03 h 1.425 l 0.12,1.305 h 0.06 q 0.39,-0.72 0.945,-1.095 0.555,-0.39 1.14,-0.39 0.525,0 0.84,0.15 l -0.3,1.5 q -0.195,-0.06 -0.36,-0.09 -0.165,-0.03 -0.405,-0.03 -0.435,0 -0.915,0.345 -0.48,0.33 -0.825,1.17 v 4.5 h -1.725 z m 5.8606,-2.445 h 2.625 q 2.25,0 3.51,1.215 1.26,1.215 1.26,3.645 0,1.215 -0.33,2.145 -0.315,0.93 -0.93,1.56 -0.6,0.615 -1.47,0.93 -0.855,0.315 -1.95,0.315 h -2.715 z m 2.505,8.4 q 1.5,0 2.295,-0.855 0.81,-0.87 0.81,-2.685 0,-1.8 -0.81,-2.625 -0.81,-0.825 -2.295,-0.825 h -0.765 v 6.99 z m 6.3557,-2.265 q 0,-0.915 0.285,-1.635 0.285,-0.72 0.765,-1.215 0.495,-0.495 1.125,-0.75 0.63,-0.27 1.32,-0.27 0.69,0 1.32,0.27 0.645,0.255 1.125,0.75 0.48,0.495 0.765,1.215 0.3,0.72 0.3,1.635 0,0.915 -0.3,1.635 -0.285,0.72 -0.765,1.215 -0.48,0.495 -1.125,0.75 -0.63,0.255 -1.32,0.255 -0.69,0 -1.32,-0.255 -0.63,-0.255 -1.125,-0.75 -0.48,-0.495 -0.765,-1.215 -0.285,-0.72 -0.285,-1.635 z m 1.77,0 q 0,1.11 0.45,1.785 0.465,0.66 1.275,0.66 0.81,0 1.275,-0.66 0.465,-0.675 0.465,-1.785 0,-1.125 -0.465,-1.785 -0.465,-0.675 -1.275,-0.675 -0.81,0 -1.275,0.675 -0.45,0.66 -0.45,1.785 z m 7.0756,-3.69 h 1.74 v 7.74 q 0,0.585 -0.12,1.08 -0.12,0.495 -0.405,0.855 -0.27,0.375 -0.72,0.57 -0.45,0.21 -1.095,0.21 -0.405,0 -0.69,-0.06 -0.3,-0.06 -0.51,-0.135 l 0.33,-1.29 q 0.15,0.045 0.315,0.075 0.15,0.045 0.315,0.045 0.495,0 0.66,-0.345 0.18,-0.33 0.18,-0.975 z m 0.87,-1.29 q -0.45,0 -0.765,-0.27 -0.3,-0.27 -0.3,-0.705 0,-0.435 0.3,-0.705 0.315,-0.285 0.765,-0.285 0.465,0 0.765,0.285 0.315,0.27 0.315,0.705 0,0.435 -0.315,0.705 -0.3,0.27 -0.765,0.27 z m 2.6957,4.98 q 0,-0.915 0.285,-1.635 0.285,-0.72 0.765,-1.215 0.495,-0.495 1.125,-0.75 0.63,-0.27 1.32,-0.27 0.69,0 1.32,0.27 0.645,0.255 1.125,0.75 0.48,0.495 0.765,1.215 0.3,0.72 0.3,1.635 0,0.915 -0.3,1.635 -0.285,0.72 -0.765,1.215 -0.48,0.495 -1.125,0.75 -0.63,0.255 -1.32,0.255 -0.69,0 -1.32,-0.255 -0.63,-0.255 -1.125,-0.75 -0.48,-0.495 -0.765,-1.215 -0.285,-0.72 -0.285,-1.635 z m 1.77,0 q 0,1.11 0.45,1.785 0.465,0.66 1.275,0.66 0.81,0 1.275,-0.66 0.465,-0.675 0.465,-1.785 0,-1.125 -0.465,-1.785 -0.465,-0.675 -1.275,-0.675 -0.81,0 -1.275,0.675 -0.45,0.66 -0.45,1.785 z m 10.4013,-6.135 h 3.3 q 0.81,0 1.485,0.15 0.69,0.15 1.185,0.51 0.495,0.36 0.78,0.945 0.285,0.57 0.285,1.425 0,0.81 -0.285,1.41 -0.285,0.6 -0.795,1.005 -0.495,0.39 -1.185,0.585 -0.675,0.18 -1.47,0.18 h -1.56 v 3.6 h -1.74 z m 3.165,4.815 q 2.16,0 2.16,-1.785 0,-0.93 -0.54,-1.275 -0.54,-0.36 -1.62,-0.36 h -1.425 v 3.42 z m 4.8707,1.32 q 0,-0.915 0.285,-1.635 0.285,-0.72 0.765,-1.215 0.495,-0.495 1.125,-0.75 0.63,-0.27 1.32,-0.27 0.69,0 1.32,0.27 0.645,0.255 1.125,0.75 0.48,0.495 0.765,1.215 0.3,0.72 0.3,1.635 0,0.915 -0.3,1.635 -0.285,0.72 -0.765,1.215 -0.48,0.495 -1.125,0.75 -0.63,0.255 -1.32,0.255 -0.69,0 -1.32,-0.255 -0.63,-0.255 -1.125,-0.75 -0.48,-0.495 -0.765,-1.215 -0.285,-0.72 -0.285,-1.635 z m 1.77,0 q 0,1.11 0.45,1.785 0.465,0.66 1.275,0.66 0.81,0 1.275,-0.66 0.465,-0.675 0.465,-1.785 0,-1.125 -0.465,-1.785 -0.465,-0.675 -1.275,-0.675 -0.81,0 -1.275,0.675 -0.45,0.66 -0.45,1.785 z m 7.3157,-2.325 h -1.05 v -1.29 l 1.14,-0.075 0.21,-2.01 h 1.44 v 2.01 h 1.875 v 1.365 h -1.875 v 3.51 q 0,1.29 1.035,1.29 0.195,0 0.39,-0.045 0.21,-0.045 0.375,-0.12 l 0.3,1.275 q -0.3,0.105 -0.69,0.18 -0.375,0.09 -0.81,0.09 -0.645,0 -1.095,-0.195 -0.435,-0.195 -0.72,-0.54 -0.27,-0.36 -0.405,-0.84 -0.12,-0.495 -0.12,-1.095 z m 5.3506,4.05 q 0.495,0.39 0.975,0.615 0.495,0.21 1.065,0.21 0.6,0 0.885,-0.24 0.285,-0.255 0.285,-0.645 0,-0.225 -0.135,-0.39 -0.135,-0.18 -0.36,-0.315 -0.225,-0.135 -0.51,-0.24 -0.285,-0.12 -0.57,-0.24 -0.36,-0.135 -0.735,-0.315 -0.375,-0.18 -0.675,-0.435 -0.285,-0.255 -0.48,-0.585 -0.18,-0.345 -0.18,-0.81 0,-0.975 0.72,-1.59 0.72,-0.615 1.965,-0.615 0.765,0 1.38,0.27 0.615,0.27 1.065,0.615 l -0.795,1.05 q -0.39,-0.285 -0.795,-0.45 -0.39,-0.18 -0.825,-0.18 -0.555,0 -0.825,0.24 -0.255,0.225 -0.255,0.57 0,0.225 0.12,0.39 0.135,0.15 0.345,0.27 0.21,0.12 0.48,0.225 0.285,0.105 0.585,0.21 0.375,0.135 0.75,0.315 0.375,0.165 0.675,0.42 0.315,0.255 0.495,0.63 0.195,0.36 0.195,0.87 0,0.48 -0.195,0.9 -0.18,0.405 -0.54,0.72 -0.36,0.3 -0.9,0.48 -0.54,0.18 -1.23,0.18 -0.765,0 -1.515,-0.285 -0.735,-0.3 -1.275,-0.735 z m 6.0557,-1.725 q 0,-0.9 0.255,-1.62 0.27,-0.72 0.705,-1.215 0.435,-0.495 0.99,-0.765 0.57,-0.27 1.17,-0.27 0.63,0 1.065,0.225 0.435,0.21 0.87,0.585 l -0.06,-1.185 v -2.67 h 1.725 v 10.59 h -1.425 l -0.12,-0.795 h -0.06 q -0.405,0.405 -0.945,0.69 -0.54,0.285 -1.14,0.285 -1.395,0 -2.22,-1.005 -0.81,-1.02 -0.81,-2.85 z m 1.785,-0.015 q 0,1.2 0.42,1.83 0.435,0.615 1.245,0.615 0.825,0 1.545,-0.825 v -3.435 q -0.39,-0.345 -0.765,-0.48 -0.36,-0.135 -0.735,-0.135 -0.72,0 -1.215,0.63 -0.495,0.63 -0.495,1.8 z m 6.9256,1.71 q 0,-1.185 1.035,-1.83 1.035,-0.645 3.3,-0.9 0,-0.285 -0.075,-0.54 -0.075,-0.27 -0.24,-0.465 -0.15,-0.21 -0.405,-0.315 -0.24,-0.12 -0.615,-0.12 -0.555,0 -1.08,0.21 -0.51,0.21 -0.99,0.51 l -0.63,-1.155 q 0.615,-0.39 1.365,-0.675 0.765,-0.285 1.65,-0.285 1.395,0 2.07,0.825 0.675,0.81 0.675,2.355 v 4.365 h -1.41 l -0.135,-0.81 h -0.045 q -0.495,0.42 -1.065,0.705 -0.555,0.285 -1.215,0.285 -0.975,0 -1.59,-0.585 -0.6,-0.6 -0.6,-1.575 z m 1.68,-0.135 q 0,0.495 0.285,0.72 0.3,0.225 0.765,0.225 0.45,0 0.825,-0.21 0.375,-0.21 0.78,-0.6 v -1.65 q -0.75,0.09 -1.26,0.24 -0.51,0.15 -0.825,0.345 -0.3,0.18 -0.435,0.42 -0.135,0.24 -0.135,0.51 z m 6.5957,-5.25 h 1.425 l 0.12,1.005 h 0.06 q 0.465,-0.495 1.005,-0.84 0.555,-0.345 1.245,-0.345 0.81,0 1.29,0.345 0.495,0.345 0.75,0.975 0.525,-0.57 1.095,-0.945 0.57,-0.375 1.275,-0.375 1.17,0 1.725,0.765 0.555,0.75 0.555,2.16 v 4.62 h -1.74 v -4.395 q 0,-0.915 -0.285,-1.29 -0.27,-0.375 -0.84,-0.375 -0.69,0 -1.545,0.915 v 5.145 h -1.725 v -4.395 q 0,-0.915 -0.285,-1.29 -0.27,-0.375 -0.855,-0.375 -0.69,0 -1.545,0.915 v 5.145 h -1.725 z m 15.4263,6.36 q 0.99,-0.96 1.785,-1.77 0.81,-0.81 1.365,-1.5 0.57,-0.69 0.87,-1.29 0.3,-0.6 0.3,-1.14 0,-0.765 -0.405,-1.2 -0.405,-0.45 -1.17,-0.45 -0.555,0 -1.02,0.315 -0.45,0.315 -0.84,0.75 l -0.96,-0.96 q 0.66,-0.705 1.35,-1.08 0.705,-0.39 1.695,-0.39 0.69,0 1.245,0.21 0.555,0.21 0.945,0.6 0.39,0.375 0.6,0.915 0.225,0.54 0.225,1.2 0,0.63 -0.285,1.29 -0.27,0.645 -0.75,1.32 -0.465,0.66 -1.095,1.365 -0.63,0.705 -1.335,1.455 0.375,-0.03 0.81,-0.06 0.435,-0.045 0.78,-0.045 h 2.34 v 1.47 h -6.45 z m 11.0807,1.185 q -1.5,0 -2.37,-1.275 -0.87,-1.29 -0.87,-3.72 0,-2.43 0.87,-3.66 0.87,-1.245 2.37,-1.245 1.5,0 2.37,1.245 0.87,1.245 0.87,3.66 0,2.43 -0.87,3.72 -0.87,1.275 -2.37,1.275 z m 0,-1.35 q 0.345,0 0.63,-0.18 0.3,-0.195 0.51,-0.63 0.21,-0.435 0.33,-1.125 0.12,-0.69 0.12,-1.71 0,-1.005 -0.12,-1.68 -0.12,-0.69 -0.33,-1.11 -0.21,-0.42 -0.51,-0.585 -0.285,-0.18 -0.63,-0.18 -0.345,0 -0.645,0.18 -0.285,0.165 -0.495,0.585 -0.21,0.42 -0.33,1.11 -0.12,0.675 -0.12,1.68 0,1.02 0.12,1.71 0.12,0.69 0.33,1.125 0.21,0.435 0.495,0.63 0.3,0.18 0.645,0.18 z m 4.5406,0.165 q 0.99,-0.96 1.785,-1.77 0.81,-0.81 1.365,-1.5 0.57,-0.69 0.87,-1.29 0.3,-0.6 0.3,-1.14 0,-0.765 -0.405,-1.2 -0.405,-0.45 -1.17,-0.45 -0.555,0 -1.02,0.315 -0.45,0.315 -0.84,0.75 l -0.96,-0.96 q 0.66,-0.705 1.35,-1.08 0.705,-0.39 1.695,-0.39 0.69,0 1.245,0.21 0.555,0.21 0.945,0.6 0.39,0.375 0.6,0.915 0.225,0.54 0.225,1.2 0,0.63 -0.285,1.29 -0.27,0.645 -0.75,1.32 -0.465,0.66 -1.095,1.365 -0.63,0.705 -1.335,1.455 0.375,-0.03 0.81,-0.06 0.435,-0.045 0.78,-0.045 h 2.34 v 1.47 h -6.45 z m 11.7257,-2.79 v -2.16 q 0,-0.42 0.015,-0.99 0.03,-0.57 0.06,-0.99 h -0.06 q -0.18,0.375 -0.375,0.735 -0.195,0.36 -0.405,0.75 l -1.74,2.655 z m 2.82,1.335 h -1.2 v 2.46 h -1.62 v -2.46 h -4.215 v -1.17 l 3.78,-5.91 h 2.055 v 5.745 h 1.2 z"
       id="text42"
       aria-label="CoderDojo Potsdam 2024" />
  </g>
  <g
     inkscape:label="Cutting"
     inkscape:groupmode="layer"
     id="layer1"
     style="display:inline"
     transform="translate(-337.18115,157.10308)">
    <circle
       style="opacity:1;fill:none;fill-opacity:1;stroke:#ff0000;stroke-width:0.292144;stroke-linecap:round;stroke-linejoin:round;stroke-miterlimit:10;stroke-dasharray:none;stroke-opacity:1"
       id="path4378"
       cx="153.74155"
       cy="437.23798"
       inkscape:export-xdpi="119.98637"
       inkscape:export-ydpi="119.98637"
       r="0" />
    <g
       id="g15"
       transform="translate(-380.93818,-345.00875)" />
    <g
       id="g19"
       transform="matrix(1,0,0,-1,-380.93818,1408.9866)" />
    <g
       id="g23"
       transform="rotate(90,513.79786,514.02419)" />
    <path
       d="m 638.45491,198.46778 h 34.7244 36.1417 34.7244 v 14.17323 h 36.14169 v -14.17323 h 34.72441 36.1418 34.7244 v 14.17323 h 50.3149 v -60.94488 h -14.1732 v -34.72441 h 14.1732 V 80.829987 h -14.1732 v -34.72441 h 14.1732 V 9.9638465 h -14.1732 V -24.760559 h 14.1732 V -60.90229 h -14.1732 v -34.724408 h 14.1732 v -60.944882 h -50.3149 v 14.17323 h -34.7244 v -14.17323 h -36.1418 v 14.17323 H 780.1871 v -14.17323 h -36.14169 v 14.17323 h -34.7244 v -14.17323 h -36.1417 v 14.17323 h -34.7244 v -14.17323 H 588.1399 v 60.944882 h 14.1732 v 34.724408 h -14.1732 v 36.141731 h 14.1732 V 9.9638465 H 588.1399 V 46.105577 h 14.1732 v 34.72441 h -14.1732 v 36.141733 h 14.1732 v 34.72441 h -14.1732 v 60.94488 h 50.31501 z"
       id="back_outsideCutPath"
       stroke="#FF0000"
       stroke-width="0.1"
       style="font-size:12px;fill:none;fill-rule:evenodd;stroke:#ff0000;stroke-width:0.354331;stroke-linecap:round"
       vector-effect="non-scaling-stroke"
       sodipodi:nodetypes="ccccccccccccccccccccccccccccccccccccccccccccccccccccccccccccccccc" />
    <circle
       style="fill:none;stroke:#ff0000;stroke-width:0.265748;stroke-opacity:1"
       id="circle36"
       cx="-1063.7147"
       cy="35.567638"
       r="28.346455"
       transform="scale(-1)" />
    <circle
       style="fill:none;stroke:#ff0000;stroke-width:0.265748;stroke-opacity:1"
       id="circle11"
       cx="1063.7147"
       cy="461.55832"
       r="28.346455" />
    <path
       d="m 1636.5408,699.49138 h 34.7244 v 14.17323 h 36.1417 v -14.17323 h 34.7244 v 14.17323 h 36.1418 v -14.17323 h 34.7244 v 14.17323 h 18.4252 v -60.23622 h 14.1732 v -36.14173 h -14.1732 v -34.72441 h 14.1732 v -36.14173 h -14.1732 v -34.72441 h 14.1732 v -36.14173 h -14.1732 v -34.72441 h 14.1732 v -36.14173 h -14.1732 v -60.23621 h -18.4252 v 14.17322 h -34.7244 v -14.17322 h -36.1418 v 14.17322 h -34.7244 v -14.17322 h -36.1417 v 14.17322 h -34.7244 v -14.17322 h -18.4252 v 60.23621 h -14.1732 v 36.14173 h 14.1732 v 34.72441 h -14.1732 v 36.14173 h 14.1732 v 34.72441 h -14.1732 v 36.14173 h 14.1732 v 34.72441 h -14.1732 v 36.14173 h 14.1732 v 60.23622 h 18.4252 z"
       id="left_outsideCutPath"
       stroke="#FF0000"
       stroke-width="0.1"
       style="font-size:12px;fill:none;fill-rule:evenodd;stroke:#ff0000;stroke-width:0.354331;stroke-linecap:round"
       vector-effect="non-scaling-stroke" />
    <path
       d="m 1741.9612,521.44729 v 3.0437 h -6.5834 v 22.8189 h -3.9189 v -22.8189 h -4.624 v -1.76811 l 4.624,-1.41732 v -1.43858 a 15.877558,15.877558 0 0 1 0.372,-3.6 q 1.1445,-4.90748 5.8359,-5.75788 a 11.905511,11.905511 0 0 1 2.1224,-0.17716 12.614173,12.614173 0 0 1 1.7858,0.13464 q 0.8681,0.12756 1.8355,0.36497 a 25.359447,25.359447 0 0 1 1.1941,0.32598 l -1.017,3.13937 a 19.024015,19.024015 0 0 0 -1.4775,-0.41811 q -0.7477,-0.17362 -1.4067,-0.25158 a 8.4259838,8.4259838 0 0 0 -0.9851,-0.0638 5.2830706,5.2830706 0 0 0 -1.272,0.14527 3.394488,3.394488 0 0 0 -2.0091,1.33228 q -1.0594,1.47402 -1.0594,4.73032 v 1.67598 z m -18.3366,11.16142 v 2.48031 h -17.8157 a 15.721653,15.721653 0 0 0 0.2728,2.62914 q 0.2835,1.43504 0.8504,2.5689 a 7.3559051,7.3559051 0 0 0 1.1764,1.71496 7.1185036,7.1185036 0 0 0 3.7382,2.10472 10.785826,10.785826 0 0 0 2.4094,0.25512 20.689369,20.689369 0 0 0 7.7492,-1.53425 23.708266,23.708266 0 0 0 0.5103,-0.2126 v 3.4937 a 23.516928,23.516928 0 0 1 -2.1437,0.80787 17.985826,17.985826 0 0 1 -1.7858,0.47835 q -1.8532,0.38976 -4.4717,0.38976 a 15.222046,15.222046 0 0 1 -3.8091,-0.45354 10.77874,10.77874 0 0 1 -5.2405,-3.04016 11.529921,11.529921 0 0 1 -2.7602,-5.06338 q -0.4784,-1.79646 -0.5457,-3.92953 a 22.375983,22.375983 0 0 1 -0.011,-0.70512 20.568897,20.568897 0 0 1 0.3791,-4.08189 q 0.7051,-3.4689 2.7,-5.85354 a 10.038188,10.038188 0 0 1 7.3169,-3.64961 13.847243,13.847243 0 0 1 0.9567,-0.0319 11.933858,11.933858 0 0 1 3.3591,0.45 9.0814956,9.0814956 0 0 1 4.3334,2.74607 10.952362,10.952362 0 0 1 2.4803,5.00669 15.944881,15.944881 0 0 1 0.3508,3.42992 z m 34.9512,11.46968 v 2.99764 a 3.8515746,3.8515746 0 0 1 -0.4571,0.18071 q -0.4889,0.16299 -1.187,0.28701 a 14.655117,14.655117 0 0 1 -0.2338,0.039 16.979527,16.979527 0 0 1 -1.1055,0.14528 q -0.5989,0.0567 -1.1233,0.0567 -7.5047,0 -7.5047,-7.90511 v -15.38859 h -3.7063 v -1.88858 l 3.7063,-1.62638 1.6512,-5.52401 h 2.2642 v 5.99527 h 7.5047 v 3.0437 h -7.5047 v 15.22205 q 0,1.64055 0.5492,2.74606 a 3.798425,3.798425 0 0 0 0.5598,0.83977 q 1.1126,1.25078 3.0473,1.25078 1.0381,0 2.0055,-0.15236 a 21.192519,21.192519 0 0 0 0.5633,-0.0957 q 0.5812,-0.10984 0.9709,-0.22323 z m -63.6945,-33.48779 v 36.71929 h -3.9189 V 510.5906 Z m 11.0197,21.30945 h 13.5213 a 13.347637,13.347637 0 0 0 -0.1595,-2.1437 q -0.3543,-2.17559 -1.4917,-3.52914 a 5.36811,5.36811 0 0 0 -3.2315,-1.84252 8.0503933,8.0503933 0 0 0 -1.4882,-0.12755 7.7208657,7.7208657 0 0 0 -2.2287,0.30472 5.9669288,5.9669288 0 0 0 -2.739,1.72205 7.7385823,7.7385823 0 0 0 -1.5378,2.59724 q -0.489,1.33937 -0.6449,3.0189 z"
       id="left_labelLayer"
       stroke="#777777"
       fill="#777777"
       style="font-size:12px;fill:#777777;fill-rule:evenodd;stroke:#777777;stroke-width:0.885827mm;stroke-linecap:round"
       vector-effect="non-scaling-stroke" />
    <path
       d="m 1010.2108,212.64103 h 36.1417 34.7244 36.1418 34.7244 18.4252 v -60.23622 h 14.1732 v -36.14173 h -14.1732 V 81.538668 h 14.1732 v -36.14173 h -14.1732 V 10.672532 h 14.1732 v -36.14173 h -14.1732 v -34.72441 h 14.1732 v -36.14173 h -14.1732 v -60.236222 h -18.4252 v 14.17323 h -34.7244 v -14.17323 h -36.1418 v 14.17323 h -34.7244 v -14.17323 h -36.1417 v 14.17323 h -34.72445 v -14.17323 h -18.4252 v 60.236222 h -14.1732 v 36.14173 h 14.1732 v 34.72441 h -14.1732 v 36.14173 h 14.1732 v 34.724406 h -14.1732 v 36.14173 h 14.1732 v 34.724412 h -14.1732 v 36.14173 h 14.1732 v 60.23622 h 18.4252 z"
       id="right_outsideCutPath"
       stroke="#FF0000"
       stroke-width="0.1"
       style="font-size:12px;fill:none;fill-rule:evenodd;stroke:#ff0000;stroke-width:0.354331;stroke-linecap:round"
       vector-effect="non-scaling-stroke"
       sodipodi:nodetypes="ccccccccccccccccccccccccccccccccccccccccccccccccccccccc" />
    <path
       d="m 1754.8235,161.76975 h -3.9189 v -16.73149 a 11.072834,11.072834 0 0 0 -0.1276,-1.73622 q -0.1453,-0.91418 -0.4571,-1.6441 a 4.6594486,4.6594486 0 0 0 -0.8539,-1.33937 4.4149604,4.4149604 0 0 0 -1.8107,-1.15512 q -0.7122,-0.25157 -1.5874,-0.34724 a 10.385433,10.385433 0 0 0 -1.109,-0.0532 q -2.6681,0 -4.3902,0.94252 a 5.4850391,5.4850391 0 0 0 -1.5697,1.27559 q -1.7149,2.02677 -1.8637,6.42047 a 25.281495,25.281495 0 0 0 -0.011,0.84685 v 13.52126 h -3.9189 v -36.71929 h 3.9189 v 11.11536 a 35.24173,35.24173 0 0 1 -0.025,1.35354 q -0.046,1.12677 -0.1665,1.97362 h 0.2374 a 7.8271649,7.8271649 0 0 1 2.7425,-2.63976 9.559842,9.559842 0 0 1 0.5492,-0.29764 10.055905,10.055905 0 0 1 3.3024,-0.9815 12.713385,12.713385 0 0 1 1.5697,-0.0921 15.895275,15.895275 0 0 1 2.6716,0.20905 q 2.7957,0.47835 4.4433,2.04449 2.3741,2.25355 2.3741,7.16103 z m -35.8725,-25.86259 h 8.9433 v 2.47677 l -4.7905,0.56693 a 6.3673225,6.3673225 0 0 1 0.5527,0.8185 q 0.241,0.4252 0.4607,0.93189 a 12.079133,12.079133 0 0 1 0.1665,0.40748 7.5366138,7.5366138 0 0 1 0.4464,1.8 9.6767711,9.6767711 0 0 1 0.074,1.20827 8.982283,8.982283 0 0 1 -0.4111,2.78504 7.2637791,7.2637791 0 0 1 -2.1862,3.2811 q -2.3386,2.04094 -6.2468,2.24291 a 17.01496,17.01496 0 0 1 -0.8788,0.0213 12.589369,12.589369 0 0 1 -1.4563,-0.0815 10.629921,10.629921 0 0 1 -0.7157,-0.1063 q -1.428,0.75472 -2.041,1.73267 a 2.9480313,2.9480313 0 0 0 -0.4606,1.59449 2.0303149,2.0303149 0 0 0 0.1028,0.66614 q 0.1878,0.54567 0.7192,0.87166 a 2.1755904,2.1755904 0 0 0 0.053,0.0319 2.7496062,2.7496062 0 0 0 0.6094,0.25157 q 0.6378,0.1878 1.6087,0.2374 a 14.903149,14.903149 0 0 0 0.7795,0.0177 h 4.578 a 16.037007,16.037007 0 0 1 2.4342,0.17362 q 1.2721,0.19488 2.3032,0.61654 a 7.0795272,7.0795272 0 0 1 1.7149,0.98149 q 2.2536,1.76811 2.2536,5.14489 0,4.20944 -3.313,6.45944 a 9.3082672,9.3082672 0 0 1 -0.1311,0.0886 11.749606,11.749606 0 0 1 -3.0295,1.3748 q -1.4918,0.45354 -3.313,0.67323 a 31.049998,31.049998 0 0 1 -3.7099,0.20551 21.947243,21.947243 0 0 1 -2.9445,-0.18425 q -1.4952,-0.20197 -2.7141,-0.63071 a 9.1027554,9.1027554 0 0 1 -2.165,-1.07362 q -2.7496,-1.88859 -2.7496,-5.33268 a 5.9881887,5.9881887 0 0 1 1.5095,-4.08189 6.8421256,6.8421256 0 0 1 2.3492,-1.71142 9.6944877,9.6944877 0 0 1 1.8992,-0.62716 q -0.9921,-0.44646 -1.6654,-1.39252 a 3.6318896,3.6318896 0 0 1 -0.6661,-1.96299 4.4964565,4.4964565 0 0 1 0,-0.23032 4.4787399,4.4787399 0 0 1 0.2233,-1.44212 3.9685037,3.9685037 0 0 1 0.5315,-1.03465 q 0.5704,-0.80433 1.637,-1.56614 a 12.305905,12.305905 0 0 1 0.7441,-0.48898 6.8669288,6.8669288 0 0 1 -2.9835,-2.38819 8.5110232,8.5110232 0 0 1 -0.2835,-0.41811 8.0964563,8.0964563 0 0 1 -1.2437,-3.90472 9.8822829,9.8822829 0 0 1 -0.018,-0.62717 11.317322,11.317322 0 0 1 0.2977,-2.67519 7.4480311,7.4480311 0 0 1 2.25,-3.87284 q 2.5476,-2.30315 7.2212,-2.30315 a 15.016535,15.016535 0 0 1 1.9878,0.12756 11.437795,11.437795 0 0 1 1.6689,0.34725 z m 55.8142,22.6311 v 2.99763 a 3.8515746,3.8515746 0 0 1 -0.4571,0.18071 q -0.489,0.15945 -1.187,0.28701 a 14.655117,14.655117 0 0 1 -0.2339,0.039 16.979527,16.979527 0 0 1 -1.1055,0.14173 q -0.5988,0.0567 -1.1232,0.0567 -7.5047,0 -7.5047,-7.90512 v -15.38503 h -3.7063 v -1.88859 l 3.7063,-1.62992 1.6511,-5.52047 h 2.2642 v 5.99528 h 7.5047 v 3.0437 h -7.5047 v 15.22204 q 0,1.64055 0.5492,2.74607 a 3.798425,3.798425 0 0 0 0.5599,0.83976 q 1.109,1.25079 3.0472,1.25079 1.0382,0 2.0055,-0.15237 a 21.192519,21.192519 0 0 0 0.5634,-0.0992 q 0.5811,-0.1063 0.9709,-0.21968 z m -85.0996,-22.82244 -0.5421,3.63543 a 17.266535,17.266535 0 0 0 -1.2437,-0.23031 q -0.6166,-0.0886 -1.1693,-0.11339 a 9.1877948,9.1877948 0 0 0 -0.4181,-0.0106 6.788976,6.788976 0 0 0 -5.0174,2.16496 9.2870074,9.2870074 0 0 0 -0.3543,0.38268 8.9468499,8.9468499 0 0 0 -2.1579,5.02441 11.891338,11.891338 0 0 0 -0.071,1.32519 v 13.87559 h -3.9189 v -25.86259 h 3.235 l 0.4465,4.79055 h 0.1913 a 13.230708,13.230708 0 0 1 1.4776,-2.11536 10.105511,10.105511 0 0 1 1.9913,-1.77874 7.8094484,7.8094484 0 0 1 4.461,-1.37126 17.985826,17.985826 0 0 1 1.6087,0.0709 13.127952,13.127952 0 0 1 1.4811,0.2126 z m 8.7555,0.19134 v 25.86259 h -3.9189 v -25.86259 z m 19.187,25.2744 h -4.6984 a 9.0035428,9.0035428 0 0 0 -1.6229,0.13465 q -0.9212,0.17008 -1.6476,0.54921 a 4.5885824,4.5885824 0 0 0 -0.8823,0.58819 4.1279525,4.1279525 0 0 0 -1.3571,2.34213 6.2681099,6.2681099 0 0 0 -0.1311,1.31811 3.9330707,3.9330707 0 0 0 0.2622,1.4563 q 0.3721,0.94252 1.2792,1.57677 a 4.595669,4.595669 0 0 0 0.2303,0.15236 6.2751965,6.2751965 0 0 0 1.5449,0.65906 q 1.4527,0.42165 3.4972,0.42519 a 20.335038,20.335038 0 0 0 0.032,0 26.333857,26.333857 0 0 0 2.5724,-0.11693 q 2.576,-0.25157 4.1953,-1.05945 a 6.5055115,6.5055115 0 0 0 0.5351,-0.29763 5.715354,5.715354 0 0 0 1.3252,-1.10906 4.283858,4.283858 0 0 0 1.0488,-2.89134 q 0,-1.30039 -0.4996,-2.10826 a 2.4696849,2.4696849 0 0 0 -0.8008,-0.80788 3.7169289,3.7169289 0 0 0 -0.8788,-0.38268 q -0.9389,-0.29055 -2.4236,-0.38267 a 24.927164,24.927164 0 0 0 -1.5803,-0.0461 z m -8.2134,-16.9937 q 0,2.71418 1.5343,4.1067 a 5.0633856,5.0633856 0 0 0 2.0374,1.10551 q 0.776,0.22677 1.7008,0.27283 a 10.087795,10.087795 0 0 0 0.5315,0.0142 q 4.5283,0 5.4814,-3.4689 a 7.9334641,7.9334641 0 0 0 0.2552,-2.10118 8.4224405,8.4224405 0 0 0 -0.2906,-2.30669 q -0.737,-2.58662 -3.3661,-3.27402 a 8.5216531,8.5216531 0 0 0 -2.1508,-0.24803 8.220472,8.220472 0 0 0 -1.6725,0.15945 q -1.5767,0.32952 -2.5759,1.32874 -1.4847,1.48464 -1.4847,4.41141 z m -15.1653,-16.00866 a 4.340551,4.340551 0 0 0 -0.057,0.71929 q 0,1.32166 0.6626,1.97008 a 2.1968503,2.1968503 0 0 0 0.7937,0.5067 2.4874014,2.4874014 0 0 0 0.8574,0.14173 2.285433,2.285433 0 0 0 1.6264,-0.64843 1.9133857,1.9133857 0 0 0 0.3756,-0.49606 q 0.1701,-0.3189 0.248,-0.73346 a 4.0535431,4.0535431 0 0 0 0.06,-0.74056 q 0,-1.32165 -0.6839,-1.95944 -0.6838,-0.6378 -1.6264,-0.6378 a 2.990551,2.990551 0 0 0 -0.1984,0.007 2.2641731,2.2641731 0 0 0 -1.4527,0.61653 q -0.4713,0.44646 -0.6059,1.25433 z"
       id="right_labelLayer"
       stroke="#777777"
       fill="#777777"
       style="font-size:12px;fill:#777777;fill-rule:evenodd;stroke:#777777;stroke-width:0.885827mm;stroke-linecap:round"
       vector-effect="non-scaling-stroke" />
    <path
       d="m 567.06798,472.04397 v -34.7244 h 14.17319 v -36.1418 h -14.17319 v -34.7244 h 14.17319 v -36.1417 h -14.17319 v -34.7244 h 14.17319 v -36.1418 h -14.17319 v -35.433 h -17.7165 v -14.1732 h -36.1418 v 14.1732 h -34.7244 v -14.1732 h -36.1417 v 14.1732 h -34.7244 v -14.1732 h -36.14171 v 14.1732 h -17.7166 v 35.433 h -14.1732 v 36.1418 h 14.1732 v 34.7244 h -14.1732 v 36.1417 h 14.1732 v 34.7244 h -14.1732 v 36.14181 h 14.1732 v 34.7244 h -14.1732 v 36.1417 h 14.1732 v 35.43309 h 17.7166 v 14.1732 h 36.14171 v -14.1732 h 34.7244 v 14.1732 h 36.1417 v -14.1732 h 34.7244 v 14.1732 h 36.1418 v -14.1732 h 17.7165 v -35.43309 h 14.17319 v -36.1417 z"
       id="bottom_outsideCutPath-4"
       stroke="#FF0000"
       stroke-width="0.1"
       style="font-size:12px;fill:none;fill-rule:evenodd;stroke:#ff0000;stroke-width:0.354331;stroke-linecap:round"
       vector-effect="non-scaling-stroke" />
    <path
       d="m 638.45491,226.81424 h 34.7244 36.1417 34.7244 v -14.17323 h 36.14169 v 14.17323 h 34.72441 36.1418 34.7244 v -14.17323 h 50.3149 v 60.94488 h -14.1732 v 34.72441 h 14.1732 v 36.14174 h -14.1732 v 34.72441 h 14.1732 v 36.14173 h -14.1732 v 34.7244 h 14.1732 v 36.14173 h -14.1732 v 34.72441 h 14.1732 v 60.94488 h -50.3149 v -14.17323 h -34.7244 v 14.17323 h -36.1418 V 567.68037 H 780.1871 v 14.17323 h -36.14169 v -14.17323 h -34.7244 v 14.17323 h -36.1417 v -14.17323 h -34.7244 V 581.8536 H 588.1399 v -60.94488 h 14.1732 v -34.72441 h -14.1732 v -36.14173 h 14.1732 v -34.7244 h -14.1732 v -36.14173 h 14.1732 V 344.45204 H 588.1399 V 308.3103 h 14.1732 v -34.72441 h -14.1732 v -60.94488 h 50.31501 z"
       id="path1"
       stroke="#FF0000"
       stroke-width="0.1"
       style="font-size:12px;fill:none;fill-rule:evenodd;stroke:#ff0000;stroke-width:0.354331;stroke-linecap:round"
       vector-effect="non-scaling-stroke"
       sodipodi:nodetypes="ccccccccccccccccccccccccccccccccccccccccccccccccccccccccccccccccc" />
    <g
       id="g2"
       transform="translate(1.875)">
      <circle
         style="fill:none;stroke:#ff0000;stroke-width:0.265748;stroke-dasharray:none;stroke-opacity:1"
         id="path30"
         cx="458.53943"
         cy="43.702427"
         r="92.125984" />
      <path
         d="m 579.36618,97.20638 v -36.1418 h -14.17319 v -34.7244 h 14.17319 v -36.1417 -34.7244 -36.1418 h -14.17319 v -35.433 h -17.7165 -36.1418 -34.72441 -36.1417 -34.7244 -36.14171 -17.7166 v 35.433 h -14.1732 v 36.1418 34.7244 36.1417 h 14.1732 v 34.7244 h -14.1732 v 36.14181 34.7244 36.1417 h 14.1732 v 35.43309 h 17.7166 36.14171 34.7244 36.1417 34.72441 36.1418 17.7165 v -35.43309 h 14.17319 v -36.1417 z"
         id="path2"
         stroke="#FF0000"
         stroke-width="0.1"
         style="font-size:12px;fill:none;fill-rule:evenodd;stroke:#ff0000;stroke-width:0.354331;stroke-linecap:round"
         vector-effect="non-scaling-stroke"
         sodipodi:nodetypes="ccccccccccccccccccccccccccccccccccccccccc" />
    </g>
    <path
       d="m 957.06116,309.01898 v 34.72442 h -14.1732 v 36.1417 h 14.1732 v 34.7244 h -14.1732 v 36.1418 h 14.1732 v 34.7244 h -14.1732 v 36.1417 h 14.1732 v 60.2362 h 18.4252 v -14.1732 h 34.72434 v 14.1732 h 36.1418 v -14.1732 h 34.7244 v 14.1732 h 36.1417 v -14.1732 h 34.7245 v 14.1732 h 18.4252 v -60.2362 h 14.1732 v -36.1417 h -14.1732 v -34.7244 h 14.1732 v -36.1418 h -14.1732 v -34.7244 h 14.1732 v -36.1417 h -14.1732 v -34.72442 z"
       id="path5"
       stroke="#FF0000"
       stroke-width="0.1"
       style="font-size:12px;fill:none;fill-rule:evenodd;stroke:#ff0000;stroke-width:0.354331;stroke-linecap:round"
       vector-effect="non-scaling-stroke"
       sodipodi:nodetypes="ccccccccccccccccccccccccccccccccccccccccc" />
    <path
       d="m 1117.2186,212.64103 h -36.1417 -34.7244 -36.1418 -34.72434 -18.4252 v 60.23622 h -14.1732 v 36.14173 l 241.65354,0 v -36.14173 h -14.1732 v -60.23622 h -18.4252 z"
       id="path6"
       stroke="#FF0000"
       stroke-width="0.1"
       style="font-size:12px;fill:none;fill-rule:evenodd;stroke:#ff0000;stroke-width:0.354331;stroke-linecap:round"
       vector-effect="non-scaling-stroke"
       sodipodi:nodetypes="ccccccccccccccc" />
  </g>
</svg>
